M48
;FILE_FORMAT=2:4
INCH,LZ
FMAT,2
ICI,OFF
;TYPE=PLATED
T1C.01181
T2C.03543
T3C.04331
T4C.12598
%
M72
G90
G93X0Y0
T1C.01181F095S3
X04189Y039783
X041988Y041929
X039941Y042028
X041004Y042224
X041063Y043051
X039902Y04313
X041909Y043583
X039921Y044508
X041201Y044665
X039882Y046378
X039862Y047067
X04124Y047067
X042126Y048091
X041673Y048091
X04063Y048189
X041673Y048602
X041752Y049173
X040787Y049665
X041831Y049803
X042067Y050177
X042067Y050669
X040748Y051063
X041831Y051063
X041358Y052087
X041457Y052776
X041988Y05437
X041398Y054528
X04189Y058799
X039783Y058878
X041949Y061004
X042559Y058091
X043425Y058031
X043425Y057185
X042559Y05687
X043386Y056811
X043957Y056752
X043366Y056004
X044114Y056004
X044665Y055965
X042559Y05565
X043386Y055374
X04374Y055276
X043465Y05502
X044409Y054587
X043091Y054331
X04437Y053799
X042972Y053169
X042972Y052539
X04437Y052539
X043819Y052185
X044665Y051614
X042343Y051063
X044567Y051063
X043602Y050846
X042618Y050177
X042874Y049803
X042343Y049803
X043957Y049665
X042874Y04935
X043602Y048484
X044665Y048031
X043898Y047165
X042972Y046791
X04437Y046772
X042972Y046083
X04437Y045512
X042677Y044685
X044665Y044587
X044272Y044035
X043031Y043268
X043031Y042874
X043031Y04248
X042874Y041614
X043701Y039764
X044606Y039764
X042677Y039764
X046122Y039764
X045433Y039764
X046693Y04
X04624Y041181
X04685Y041594
X04685Y044094
X04561Y044213
X04561Y04498
X045689Y045512
X046831Y046043
X044783Y046142
X045335Y046142
X046831Y046772
X045689Y046772
X046811Y047579
X04561Y047657
X04561Y048425
X045197Y049114
X046161Y049114
X045197Y049665
X046161Y049665
X046693Y049665
X045197Y050315
X047264Y050335
X046161Y050335
X04687Y051102
X04561Y05124
X04561Y051929
X045768Y052539
X046831Y053071
X045335Y053169
X044783Y053169
X045768Y053799
X046831Y053799
X045925Y055531
X045571Y056083
X045807Y056476
X046102Y056732
X044823Y057815
X045886Y058071
X047953Y058031
X049449Y05752
X048996Y05752
X048799Y05622
X047559Y055531
X04874Y053799
X047815Y053799
X048602Y051535
X047736Y051535
X049547Y051398
X047736Y051102
X048602Y051102
X049547Y050433
X048602Y050335
X047677Y048012
X048543Y048012
X049547Y047913
X048543Y047579
X047677Y047579
X047815Y046772
X04874Y046772
X047717Y044528
X048583Y044528
X049547Y044409
X048583Y044094
X047717Y044094
X049331Y042736
X049508Y042126
X047362Y041594
X047854Y041594
X047303Y04
X050492Y039724
X051988Y040709
X050098Y042205
X051417Y042283
X052106Y042776
X051713Y042776
X05185Y043957
X051063Y04435
X04998Y044409
X052106Y044764
X04998Y044843
X051201Y045354
X049921Y045846
X050315Y045846
X050098Y047106
X052106Y047598
X051201Y047697
X04998Y047913
X04998Y048366
X051201Y048858
X049921Y04935
X050315Y04935
X050453Y050413
X051417Y050709
X04998Y051398
X050551Y051476
X04998Y051831
X051122Y05187
X051201Y052382
X050295Y052854
X049941Y052854
X051339Y054232
X050531Y054252
X049961Y05498
X050217Y055827
X051713Y055866
X052106Y055866
X050098Y0575
X052205Y057539
X054055Y057697
X054606Y056476
X052421Y056358
X053524Y05565
X052441Y055
X054646Y05498
X054606Y054291
X053366Y053406
X054665Y053406
X054449Y052835
X05311Y052461
X052283Y052165
X052559Y051614
X054744Y051476
X054547Y051004
X053839Y050965
X054252Y049508
X052441Y048976
X05435Y048878
X053976Y048622
X054154Y047205
X053248Y04685
X054154Y04685
X054154Y046161
X0525Y045768
X054094Y045197
X05315Y045
X054094Y044567
X054252Y04372
X05252Y04313
X054094Y042953
X054724Y042579
X052441Y041772
X055256Y041791
X056535Y042028
X055512Y042067
X055079Y042323
X055394Y042638
X055748Y042756
X057047Y043071
X057047Y043425
X057047Y04378
X055748Y044567
X056535Y044587
X055807Y045295
X056575Y046181
X055925Y046437
X057224Y046535
X056634Y047146
X05502Y047559
X055906Y047717
X055217Y048268
X055925Y049311
X055906Y049705
X056811Y050138
X055453Y051457
X056811Y052244
X055394Y052638
X057047Y052815
X056811Y053425
X055374Y053858
X056732Y055945
X056004Y056831
X056358Y056929
X057028Y057323
X056024Y057382
X05624Y059488
X055728Y060394
X059764Y060413
X057618Y059508
X058071Y057047
X058445Y056299
X059272Y055984
X058346Y054823
X059173Y053957
X059528Y053937
X058031Y053425
X059665Y053425
X057441Y053169
X057835Y052815
X059488Y052638
X057441Y052461
X058031Y052244
X059232Y051457
X058681Y050925
X058681Y049528
X05752Y049429
X057756Y049173
X058071Y049035
X05878Y049016
X05811Y048681
X057894Y048406
X059665Y048366
X057323Y047717
X059764Y047421
X058583Y047028
X059665Y046161
X057382Y045787
X057283Y045118
X058839Y044606
X059291Y04435
X058819Y044213
X058465Y044213
X057953Y043996
X057992Y043602
X057972Y043209
X059508Y042795
X058543Y041654
X05813Y041634
X05813Y039724
X059134Y039705
X060138Y039705
X060453Y041024
X060472Y043169
X062224Y04378
X060689Y044665
X060138Y04498
X06187Y045335
X06065Y045453
X060374Y045925
X06187Y046358
X061516Y047106
X060177Y048858
X062224Y049429
X06126Y050453
X060689Y050512
X060315Y050512
X059961Y050571
X06187Y050866
X061772Y051358
X061063Y052205
X060886Y0525
X059823Y052579
X060591Y052657
X060827Y053169
X06Y053287
X059902Y053681
X060945Y053681
X061122Y05439
X060768Y054882
X059862Y055256
X060551Y056929
X061437Y057264
X060669Y059075
X061614Y059094
X060059Y059528
X063858Y057382
X064606Y057283
X062461Y057244
X064213Y057087
X064626Y056791
X062795Y055965
X063406Y054882
X063406Y054114
X064744Y053386
X062638Y053012
X063465Y052992
X064075Y052913
X064508Y05189
X062677Y051772
X062657Y050866
X064173Y050571
X064764Y050217
X062657Y049843
X064606Y049213
X062461Y048681
X063819Y047992
X063445Y046358
X062657Y046358
X064665Y045709
X063445Y045335
X062657Y045335
X064252Y042933
X062953Y042028
X062303Y039783
X066969Y039705
X064823Y039783
X065059Y041339
X065374Y042126
X06687Y042224
X065374Y04252
X066969Y042874
X06498Y04372
X065256Y044921
X066476Y045315
X064941Y045945
X064843Y04628
X067205Y04687
X067224Y047579
X066614Y047756
X067224Y048071
X066122Y050177
X06561Y050453
X065217Y051496
X066142Y052717
X066122Y053209
X066299Y053898
X067205Y054232
X066181Y054291
X065945Y055157
X065059Y055768
X066713Y056122
X066693Y056457
X066988Y057343
X066024Y057598
X06502Y057598
X066713Y057638
X066476Y059429
X065138Y059823
X06872Y059567
X06815Y058327
X06874Y058327
X068228Y056201
X068563Y056083
X068445Y055669
X06874Y055374
X068268Y054803
X068051Y053878
X067736Y053858
X067382Y053858
X067894Y052874
X068681Y051634
X068681Y051004
X06811Y050591
X067815Y050394
X069252Y049783
X06811Y049508
X067815Y049154
X067559Y04872
X06937Y048681
X067717Y048071
X067717Y046378
X06748Y045866
X06815Y045748
X069528Y045335
X068701Y044528
X06815Y044528
X06815Y043701
X068701Y043701
X068386Y042756
X067559Y041417
X069016Y041378
X068996Y039724
X071299Y041083
X072264Y04185
X07002Y042205
X06998Y044114
X071634Y044154
X070925Y044272
X071299Y045394
X07128Y04687
X071378Y048346
X071398Y049114
X070315Y049803
X071122Y050531
X070079Y051555
X071614Y053287
X071339Y053878
X070177Y055689
X071319Y056063
X070394Y057382
X071339Y058051
X071634Y05935
X070413Y059409
X073917Y059449
X073209Y058051
X073996Y055886
X073937Y053051
X073996Y049921
X072638Y049016
X072992Y049016
X073209Y048406
X072854Y046634
X074232Y046358
X073937Y044528
X073937Y04189
X073012Y039665
X075157Y04065
X075138Y041732
X075138Y045276
X075118Y048484
X075138Y051417
X075177Y054469
X075157Y056752
X075157Y059252
T2C.03543F197S55
X04187Y04561
X040492Y04561
T3C.04331F139S55
X043346Y040512
X044331Y040512
X040039Y048681
X040039Y049665
X040039Y05065
X040248Y052665
X040248Y053665
X040248Y054665
X040248Y055665
X040248Y056665
X043665Y059539
X044665Y059539
X042665Y059539
X044665Y060539
X043665Y060539
X042665Y060539
X045665Y060539
X046665Y060539
X047665Y060539
X048665Y060539
X049665Y060539
X047665Y059539
X046665Y059539
X048665Y059539
X045665Y059539
X049665Y059539
X045315Y040512
X052665Y040248
X053665Y040248
X054665Y040248
X052665Y059539
X053665Y059539
X054665Y059539
X050665Y059539
X051665Y059539
X052665Y060539
X054665Y060539
X051665Y060539
X050665Y060539
X053665Y060539
X056665Y060539
X057665Y060539
X058665Y060539
X057665Y040248
X058665Y040248
X059665Y040248
X056665Y040248
X055665Y040248
X061665Y040248
X060665Y040248
X060827Y046571
X060827Y047571
X060827Y048571
X060827Y049571
X0655Y060539
X0665Y060539
X0675Y060539
X0685Y060539
X0695Y060539
X0685Y040248
X0665Y040248
X0655Y040248
X0675Y040248
X0695Y040248
X0715Y040248
X0705Y040248
X0735Y040248
X0745Y040248
X0725Y040248
X0705Y060539
X0715Y060539
X0745Y060539
X0735Y060539
X0725Y060539
T4C.12598F035S794
X040748Y040748
X040748Y060039
X063583Y060039
X063583Y040748
M30
