*
*
G04 PADS VX.2.4 Build Number: 14754398 generated Gerber (RS-274-X) file*
G04 PC Version=2.1*
*
%IN "TMC4671+TMC6100-TOSV-RE"*%
*
%MOIN*%
*
%FSLAX35Y35*%
*
*
*
*
G04 PC Standard Apertures*
*
*
G04 Thermal Relief Aperture macro.*
%AMTER*
1,1,$1,0,0*
1,0,$1-$2,0,0*
21,0,$3,$4,0,0,45*
21,0,$3,$4,0,0,135*
%
*
*
G04 Annular Aperture macro.*
%AMANN*
1,1,$1,0,0*
1,0,$2,0,0*
%
*
*
G04 Odd Aperture macro.*
%AMODD*
1,1,$1,0,0*
1,0,$1-0.005,0,0*
%
*
*
G04 PC Custom Aperture Macros*
*
*
*
*
*
*
G04 PC Aperture Table*
*
%ADD011C,0.00787*%
%ADD020C,0.01181*%
%ADD021C,0.02362*%
%ADD035C,0.06299*%
%ADD037C,0.07087*%
%ADD042C,0.001*%
%ADD044C,0.0748*%
*
*
*
*
G04 PC Circuitry*
G04 Layer Name TMC4671+TMC6100-TOSV-RE - circuitry*
%LPD*%
*
*
G04 PC Custom Flashes*
G04 Layer Name TMC4671+TMC6100-TOSV-RE - flashes*
%LPD*%
*
*
G04 PC Circuitry*
G04 Layer Name TMC4671+TMC6100-TOSV-RE - circuitry*
%LPD*%
*
G54D11*
G01X574920Y531093D02*
G75*
G03X574409Y530079I753J-1014D01*
G01X574920Y531093D02*
X573899D01*
X574409Y530079D02*
G03X573899Y531093I-1263J-0D01*
G01X574134Y530866D02*
X574685D01*
X574409Y530079D02*
Y531093D01*
X577747Y527639D02*
G03X576732Y528150I-1015J-753D01*
G01X577747Y527639D02*
Y528660D01*
X576732Y528150D02*
G03X577747Y528660I0J1263D01*
G01X576732Y528150D02*
X577747D01*
X576732D02*
X576732D01*
X577520Y527874D02*
Y528425D01*
X578857Y527550D02*
G03X578346Y526535I753J-1015D01*
G01X578857Y527550D02*
X577836D01*
X578346Y526535D02*
G03X577836Y527550I-1263J0D01*
G01X578071Y527323D02*
X578622D01*
X578346Y526535D02*
Y527550D01*
X579530Y522504D02*
G03X579174Y523582I-1250J185D01*
G01X579530Y522504D02*
X580252Y523226D01*
X579174Y523582D02*
G03X580252Y523226I893J894D01*
G01X579174Y523582D02*
X579174D01*
X579539Y522795D02*
X579821D01*
X579174Y523582D02*
X579174D01*
X579961Y522935D02*
Y523217D01*
X577836Y528749D02*
G03X578346Y529764I-753J1015D01*
G01X577836Y528749D02*
X578857D01*
X578346Y529764D02*
G03X578857Y528749I1264J-0D01*
G01X578346Y529764D02*
X578346D01*
X578071Y528976D02*
X578622D01*
X578346Y528749D02*
Y529764D01*
X580252Y533467D02*
G03X579174Y533111I-185J-1250D01*
G01X580252Y533467D02*
X579530Y534189D01*
X579174Y533111D02*
G03X579530Y534189I-894J893D01*
G01X579539Y533898D02*
X579821D01*
X579174Y533111D02*
X579174D01*
X579961Y533476D02*
Y533758D01*
X568174Y523226D02*
G03X569252Y523582I184J1250D01*
G01X568174Y523226D02*
X568895Y522504D01*
X569252Y523582D02*
G03X568895Y522504I893J-893D01*
G01X569252Y523582D02*
X569252D01*
X568604Y522795D02*
X568886D01*
X568464Y522935D02*
Y523217D01*
X570983Y527550D02*
G03X570472Y526535I753J-1015D01*
G01X570983Y527550D02*
X569962D01*
X570472Y526535D02*
G03X569962Y527550I-1263J0D01*
G01X570197Y527323D02*
X570748D01*
X570472Y526535D02*
Y527550D01*
X571072Y528660D02*
G03X572087Y528150I1015J753D01*
G01X571072Y528660D02*
Y527639D01*
X572087Y528150D02*
G03X571072Y527639I-0J-1264D01*
G01Y528150D02*
X572087D01*
X571299Y527874D02*
Y528425D01*
X573899Y525206D02*
G03X574409Y526220I-753J1014D01*
G01X573899Y525206D02*
X574920D01*
X574409Y526220D02*
G03X574920Y525206I1264J0D01*
G01X574409Y526220D02*
X574409D01*
X574134Y525433D02*
X574685D01*
X574409Y525206D02*
Y526220D01*
X568895Y534189D02*
G03X569252Y533111I1250J-185D01*
G01X568895Y534189D02*
X568174Y533467D01*
X569252Y533111D02*
G03X568174Y533467I-894J-894D01*
G01X568604Y533898D02*
X568886D01*
X568464Y533476D02*
Y533758D01*
X569962Y528749D02*
G03X570472Y529764I-753J1015D01*
G01X569962Y528749D02*
X570983D01*
X570472Y529764D02*
G03X570983Y528749I1264J-0D01*
G01X570472Y529764D02*
X570472D01*
X570197Y528976D02*
X570748D01*
X570472Y528749D02*
Y529764D01*
X574409Y531693D02*
Y528150D01*
X578346*
Y524409*
X580315Y522441*
X578346Y528150D02*
Y532283D01*
X580315Y534252*
X568110Y522441D02*
X570472Y524803D01*
Y528150*
X574409*
Y524606*
X568110Y534252D02*
X570472Y531890D01*
Y528150*
X748740Y402480D02*
G03X748740I-3740J0D01*
G01X738740D02*
G03X738740I-3740J0D01*
G01X734449Y484055D02*
G03X734449I-2362J0D01*
G01X728740Y402480D02*
G03X728740I-3740J0D01*
G01X734449Y580512D02*
G03X734449I-2362J0D01*
G01X728740Y605394D02*
G03X728740I-3740J0D01*
G01X720315Y402480D02*
G03X720315I-5315J0D01*
G01X708740D02*
G03X708740I-3740J0D01*
G01X711614Y442717D02*
G03X711614I-2362J0D01*
G01X716142Y483465D02*
G03X716142I-2362J0D01*
G01X718504Y532874D02*
G03X718504I-2362J0D01*
G01X715748Y580512D02*
G03X715748I-2362J0D01*
G01X718740Y605394D02*
G03X718740I-3740J0D01*
G01X710315D02*
G03X710315I-5315J0D01*
G01X698740Y402480D02*
G03X698740I-3740J0D01*
G01X697638Y453346D02*
G03X697638I-2362J0D01*
G01X698740Y605394D02*
G03X698740I-3740J0D01*
G01X688740Y402480D02*
G03X688740I-3740J0D01*
G01X689173Y516339D02*
G03X689173I-2362J0D01*
G01X678740Y402480D02*
G03X678740I-3740J0D01*
G01X677165Y458661D02*
G03X677165I-2362J0D01*
G01X685039Y548031D02*
G03X685039I-2362J0D01*
G01X683858Y583268D02*
G03X683858I-2362J0D01*
G01X688740Y605394D02*
G03X688740I-3740J0D01*
G01X668740Y402480D02*
G03X668740I-3740J0D01*
G01X663583Y501772D02*
G03X663583I-2363J0D01*
G01X678740Y605394D02*
G03X678740I-3740J0D01*
G01X658740Y402480D02*
G03X658740I-3740J0D01*
G01X661811Y551575D02*
G03X661811I-2362J0D01*
G01X668740Y605394D02*
G03X668740I-3740J0D01*
G01X646457Y407480D02*
G03X646457I-10630J0D01*
G01X654528Y514961D02*
G03X654528I-2363J0D01*
G01X647441Y518898D02*
G03X647441I-2362J0D01*
G01X649803Y533858D02*
G03X649803I-2362J0D01*
G01X652559Y575984D02*
G03X652559I-2362J0D01*
G01X658740Y605394D02*
G03X658740I-3740J0D01*
G01X636811Y453346D02*
G03X636811I-2362J0D01*
G01Y463583D02*
G03X636811I-2362J0D01*
G01X636417Y541142D02*
G03X636417I-2362J0D01*
G01Y548819D02*
G03X636417I-2362J0D01*
G01X620394Y402480D02*
G03X620394I-3740J0D01*
G01X624606Y437795D02*
G03X624606I-2362J0D01*
G01X628937Y453346D02*
G03X628937I-2362J0D01*
G01Y463583D02*
G03X628937I-2362J0D01*
G01Y498425D02*
G03X628937I-2362J0D01*
G01Y508661D02*
G03X628937I-2362J0D01*
G01X630315Y559646D02*
G03X630315I-2362J0D01*
G01X626969Y572441D02*
G03X626969I-2363J0D01*
G01X646457Y600394D02*
G03X646457I-10630J0D01*
G01X621063Y453346D02*
G03X621063I-2362J0D01*
G01Y463583D02*
G03X621063I-2362J0D01*
G01Y508661D02*
G03X621063I-2362J0D01*
G01X610394Y402480D02*
G03X610394I-3740J0D01*
G01X607087Y431693D02*
G03X607087I-2363J0D01*
G01X609252Y446654D02*
G03X609252I-2362J0D01*
G01X608858Y454528D02*
G03X608858I-2362J0D01*
G01X600394Y402480D02*
G03X600394I-3740J0D01*
G01X603740Y449803D02*
G03X603740I-2362J0D01*
G01X612795Y485709D02*
G03X612795I-4527J0D01*
G01X612008Y495709D02*
G03X612008I-3740J0D01*
G01X599016Y483661D02*
G03X599016I-2362J0D01*
G01X616732Y572638D02*
G03X616732I-2362J0D01*
G01X610630Y531693D02*
G03X610630I-2362J0D01*
G01X610039Y548819D02*
G03X610039I-2362J0D01*
G01X590394Y402480D02*
G03X590394I-3740J0D01*
G01X580394D02*
G03X580394I-3740J0D01*
G01X583661Y416339D02*
G03X583661I-2362J0D01*
G01X582283Y436024D02*
G03X582283I-2362J0D01*
G01X594685Y514567D02*
G03X594685I-2362J0D01*
G01X600984Y552559D02*
G03X600984I-2362J0D01*
G01X585827Y548228D02*
G03X585827I-2362J0D01*
G01X591181Y605394D02*
G03X591181I-4527J0D01*
G01X570394Y402480D02*
G03X570394I-3740J0D01*
G01X560394D02*
G03X560394I-3740J0D01*
G01X559843Y427559D02*
G03X559843I-2363J0D01*
G01X550394Y402480D02*
G03X550394I-3740J0D01*
G01X552559Y475591D02*
G03X552559I-2362J0D01*
G01X557283Y514567D02*
G03X557283I-2755J0D01*
G01X556693Y526378D02*
G03X556693I-2756J0D01*
G01X556496Y538583D02*
G03X556496I-2756J0D01*
G01X541969Y402480D02*
G03X541969I-5315J0D01*
G01X544882Y437205D02*
G03X544882I-2362J0D01*
G01X543307Y451969D02*
G03X543307I-2362J0D01*
G01X543898Y468504D02*
G03X543898I-2363J0D01*
G01X545866Y488780D02*
G03X545866I-2362J0D01*
G01X548622Y510039D02*
G03X548622I-3150J0D01*
G01X547638Y528346D02*
G03X547638I-3150J0D01*
G01X549213Y542913D02*
G03X549213I-3150J0D01*
G01X551969Y595394D02*
G03X551969I-5315J0D01*
G01X550394Y605394D02*
G03X550394I-3740J0D01*
G01X540394Y595394D02*
G03X540394I-3740J0D01*
G01Y605394D02*
G03X540394I-3740J0D01*
G01X530394Y402480D02*
G03X530394I-3740J0D01*
G01X526772Y417717D02*
G03X526772I-2363J0D01*
G01X520866Y439567D02*
G03X520866I-2362J0D01*
G01X525984Y521654D02*
G03X525984I-3149J0D01*
G01X512992Y443504D02*
G03X512992I-2362J0D01*
G01X514764Y453543D02*
G03X514764I-2756J0D01*
G01Y488583D02*
G03X514764I-2756J0D01*
G01Y523819D02*
G03X514764I-2756J0D01*
G01X530394Y595394D02*
G03X530394I-3740J0D01*
G01Y605394D02*
G03X530394I-3740J0D01*
G01X520394Y595394D02*
G03X520394I-3740J0D01*
G01Y605394D02*
G03X520394I-3740J0D01*
G01X497441Y421260D02*
G03X497441I-2362J0D01*
G01X503346Y575000D02*
G03X503346I-2362J0D01*
G01X510394Y595394D02*
G03X510394I-3740J0D01*
G01Y605394D02*
G03X510394I-3740J0D01*
G01X500394Y595394D02*
G03X500394I-3740J0D01*
G01Y605394D02*
G03X500394I-3740J0D01*
G01X490551Y467717D02*
G03X490551I-3149J0D01*
G01X489173Y503346D02*
G03X489173I-3149J0D01*
G01X490551Y537992D02*
G03X490551I-3149J0D01*
G01X490394Y595394D02*
G03X490394I-3740J0D01*
G01X491969Y605394D02*
G03X491969I-5315J0D01*
G01X481299Y467717D02*
G03X481299I-3149J0D01*
G01X471654Y440945D02*
G03X471654I-3150J0D01*
G01X471457Y460433D02*
G03X471457I-3150J0D01*
G01Y467717D02*
G03X471457I-3150J0D01*
G01X471260Y475787D02*
G03X471260I-3150J0D01*
G01X456890Y405118D02*
G03X456890I-3740J0D01*
G01X460039Y455118D02*
G03X460039I-3149J0D01*
G01X447047Y405118D02*
G03X447047I-3740J0D01*
G01X446850Y455118D02*
G03X446850I-3149J0D01*
G01X460039Y467717D02*
G03X460039I-3149J0D01*
G01X475787Y503346D02*
G03X475787I-3149J0D01*
G01X481299Y537992D02*
G03X481299I-3149J0D01*
G01X480394Y595394D02*
G03X480394I-3740J0D01*
G01Y605394D02*
G03X480394I-3740J0D01*
G01X471850Y511024D02*
G03X471850I-3149J0D01*
G01X471457Y530709D02*
G03X471457I-3150J0D01*
G01Y537992D02*
G03X471457I-3150J0D01*
G01X464764Y503346D02*
G03X464764I-3150J0D01*
G01X460827Y525394D02*
G03X460827I-3150J0D01*
G01X432874Y460827D02*
G03X432874I-3150J0D01*
G01Y467913D02*
G03X432874I-3150J0D01*
G01X439173Y484843D02*
G03X439173I-3149J0D01*
G01X442717Y496654D02*
G03X442717I-3150J0D01*
G01X439173Y508465D02*
G03X439173I-3149J0D01*
G01X460827Y537992D02*
G03X460827I-3150J0D01*
G01X471969Y595394D02*
G03X471969I-5315J0D01*
G01X470394Y605394D02*
G03X470394I-3740J0D01*
G01X460394Y595394D02*
G03X460394I-3740J0D01*
G01Y605394D02*
G03X460394I-3740J0D01*
G01X446850Y537992D02*
G03X446850I-3149J0D01*
G01X449016Y559646D02*
G03X449016I-2362J0D01*
G01X443504Y560039D02*
G03X443504I-2362J0D01*
G01X450394Y595394D02*
G03X450394I-3740J0D01*
G01X441929Y567520D02*
G03X441929I-2362J0D01*
G01X451969Y605394D02*
G03X451969I-5315J0D01*
G01X436024Y560039D02*
G03X436024I-2363J0D01*
G01X436614Y571850D02*
G03X436614I-2362J0D01*
G01X440394Y595394D02*
G03X440394I-3740J0D01*
G01Y605394D02*
G03X440394I-3740J0D01*
G01X418110Y407480D02*
G03X418110I-10630J0D01*
G01X422047Y456102D02*
G03X422047I-3346J0D01*
G01X427953Y556496D02*
G03X427953I-2362J0D01*
G01Y568701D02*
G03X427953I-2362J0D01*
G01Y580906D02*
G03X427953I-2362J0D01*
G01X430394Y595394D02*
G03X430394I-3740J0D01*
G01Y605394D02*
G03X430394I-3740J0D01*
G01X422244Y543701D02*
G03X422244I-2362J0D01*
G01X409449Y481890D02*
G03X409449I-3150J0D01*
G01X411024Y496654D02*
G03X411024I-3150J0D01*
G01X410630Y510630D02*
G03X410630I-3150J0D01*
G01X404134Y486811D02*
G03X404134I-3740J0D01*
G01Y496654D02*
G03X404134I-3740J0D01*
G01Y506496D02*
G03X404134I-3740J0D01*
G01X406220Y526654D02*
G03X406220I-3740J0D01*
G01X407795Y536654D02*
G03X407795I-5315J0D01*
G01X406220Y546654D02*
G03X406220I-3740J0D01*
G01Y556654D02*
G03X406220I-3740J0D01*
G01Y566654D02*
G03X406220I-3740J0D01*
G01X418110Y600394D02*
G03X418110I-10630J0D01*
G01X753937Y602362D02*
G03X744094Y612205I-9843J0D01*
G01X405512*
G03X395669Y602362I-0J-9843*
G01Y405512*
G03X405512Y395669I9843J-0*
G01X744094*
G03X753937Y405512I0J9843*
G01Y602362*
X748740Y402480D02*
G03X748740I-3740J0D01*
G01X738740D02*
G03X738740I-3740J0D01*
G01X734449Y484055D02*
G03X734449I-2362J0D01*
G01X728740Y402480D02*
G03X728740I-3740J0D01*
G01X728260Y488478D02*
G03X728039I-110J-112D01*
G01Y491837D02*
G03Y488478I-1661J-1680D01*
G01Y491837D02*
G03X728260I111J112D01*
G01Y488478D02*
G03Y491837I1661J1679D01*
G01X734449Y580512D02*
G03X734449I-2362J0D01*
G01X740144Y603233D02*
G03X739856I-144J-64D01*
G01Y607554D02*
G03Y603233I-4856J-2160D01*
G01Y607554D02*
G03X740144I144J64D01*
G01Y603233D02*
G03Y607554I4856J2161D01*
G01X728740Y605394D02*
G03X728740I-3740J0D01*
G01X720315Y402480D02*
G03X720315I-5315J0D01*
G01X708740D02*
G03X708740I-3740J0D01*
G01X711614Y442717D02*
G03X711614I-2362J0D01*
G01X716142Y483465D02*
G03X716142I-2362J0D01*
G01X718504Y532874D02*
G03X718504I-2362J0D01*
G01X715748Y580512D02*
G03X715748I-2362J0D01*
G01X718740Y605394D02*
G03X718740I-3740J0D01*
G01X710315D02*
G03X710315I-5315J0D01*
G01X698740Y402480D02*
G03X698740I-3740J0D01*
G01X697638Y453346D02*
G03X697638I-2362J0D01*
G01X698740Y605394D02*
G03X698740I-3740J0D01*
G01X688740Y402480D02*
G03X688740I-3740J0D01*
G01X689173Y516339D02*
G03X689173I-2362J0D01*
G01X678740Y402480D02*
G03X678740I-3740J0D01*
G01X677165Y458661D02*
G03X677165I-2362J0D01*
G01X674859Y480200D02*
G03X674551I-154J-34D01*
G01X672753Y478402D02*
G03X674551Y480200I-509J2307D01*
G01X672753Y478402D02*
G03Y478094I34J-154D01*
G01X671736D02*
G03X672753I508J-2307D01*
G01X671736D02*
G03Y478402I-34J154D01*
G01X674551Y481217D02*
G03X671736Y478402I-2307J-508D01*
G01X674551Y481217D02*
G03X674859I154J34D01*
G01Y480200D02*
G03Y481217I2306J509D01*
G01X680449Y492809D02*
G03X680248Y492657I-43J-152D01*
X680265Y492587I158J0*
G01X678803Y493806D02*
G03X680265Y492587I-653J-2271D01*
G01X678803Y493806D02*
G03X679004Y493957I43J151D01*
X678987Y494027I-158J-0*
G01X680449Y492809D02*
G03X678987Y494027I653J2270D01*
G01X680649Y503587D02*
G03X680464Y503464I-31J-154D01*
G01X678603Y506255D02*
G03X680464Y503464I-453J-2318D01*
G01X678603Y506255D02*
G03X678788Y506378I31J155D01*
G01X680649Y503587D02*
G03X678788Y506378I453J2319D01*
G01X679150Y536849D02*
G03X678953Y536837I-90J-129D01*
G01X675701Y536903D02*
G03X678953Y536837I1661J1680D01*
G01X675701Y536903D02*
G03X675480I-110J-112D01*
G01X671770Y539759D02*
G03X675480Y536903I2049J-1176D01*
G01X671770Y539759D02*
G03X671660Y539993I-136J78D01*
G01X674096Y541147D02*
G03X671660Y539993I-2049J1176D01*
G01X674096Y541147D02*
G03X674207Y540913I136J-79D01*
G01X675480Y540262D02*
G03X674207Y540913I-1661J-1679D01*
G01X675480Y540262D02*
G03X675701I111J112D01*
G01X678724Y540513D02*
G03X675701Y540262I-1362J-1930D01*
G01X678724Y540513D02*
G03X678921Y540525I90J129D01*
G01X679150Y536849D02*
G03X678921Y540525I1362J1931D01*
G01X685039Y548031D02*
G03X685039I-2362J0D01*
G01X685082Y554189D02*
G03X684898Y554374I-154J30D01*
G01X683818Y558969D02*
G03X684898Y554374I631J-2276D01*
G01X683818Y558969D02*
G03X683891Y559228I-43J152D01*
G01X683503Y559799D02*
G03X683891Y559228I2127J1028D01*
G01X683503Y559799D02*
G03X683294Y559873I-142J-69D01*
G01X684410Y563036D02*
G03X683294Y559873I-2127J-1028D01*
G01X684410Y563036D02*
G03X684619Y562962I142J68D01*
G01X686261Y558550D02*
G03X684619Y562962I-631J2277D01*
G01X686261Y558550D02*
G03X686187Y558292I42J-151D01*
G01X686768Y556244D02*
G03X686187Y558292I-2319J449D01*
G01X686768Y556244D02*
G03X686953Y556059I155J-30D01*
G01X685082Y554189D02*
G03X686953Y556059I2320J-449D01*
G01X683858Y583268D02*
G03X683858I-2362J0D01*
G01X688740Y605394D02*
G03X688740I-3740J0D01*
G01X668740Y402480D02*
G03X668740I-3740J0D01*
G01X663583Y501772D02*
G03X663583I-2363J0D01*
G01X660825Y529452D02*
G03X660813Y529760I-39J153D01*
G01X661812Y529800D02*
G03X660813Y529760I-592J2287D01*
G01X661812Y529800D02*
G03X661825Y529492I40J-153D01*
G01X660825Y529452D02*
G03X661825Y529492I592J-2287D01*
G01X661129Y540429D02*
G03X661163Y540526I-124J97D01*
X661056Y540675I-158J-0*
G01X663674Y541461D02*
G03X661056Y540675I-1863J1452D01*
G01X663674Y541461D02*
G03X663640Y541364I124J-97D01*
X663748Y541215I158J-0*
G01X661129Y540429D02*
G03X663748Y541215I1863J-1453D01*
G01X665273Y562686D02*
G03X665261Y562895I-124J97D01*
G01X664567Y564567D02*
G03X665261Y562895I2362J-0D01*
G01X668782Y563102D02*
G03X664567Y564567I-1853J1465D01*
G01X668782Y563102D02*
G03X668794Y562893I124J-98D01*
G01X665273Y562686D02*
G03X668794Y562893I1853J-1466D01*
G01X667520Y573425D02*
X667520D01*
X667557Y573845D02*
G03X667520Y573425I2325J-420D01*
G01X667557Y573845D02*
G03X667560Y573873I-155J28D01*
X667385Y574030I-158J0*
G01X669488Y576378D02*
G03X667385Y574030I-2362J-0D01*
G01X669488Y576378D02*
X669488D01*
X669451Y575958D02*
G03X669488Y576378I-2325J420D01*
G01X669451Y575958D02*
G03X669448Y575930I155J-28D01*
X669623Y575773I157J-0*
G01X667520Y573425D02*
G03X669623Y575773I2362J0D01*
G01X678740Y605394D02*
G03X678740I-3740J0D01*
G01X658740Y402480D02*
G03X658740I-3740J0D01*
G01X661811Y551575D02*
G03X661811I-2362J0D01*
G01X668740Y605394D02*
G03X668740I-3740J0D01*
G01X656271Y423322D02*
G03Y423135I127J-94D01*
G01X651209D02*
G03X656271I2531J-1875D01*
G01X651209D02*
G03Y423322I-126J93D01*
G01X656271D02*
G03X651209I-2531J1875D01*
G01X646457Y407480D02*
G03X646457I-10630J0D01*
G01X649184Y457097D02*
G03X649012Y456950I-15J-156D01*
G01X646879Y459438D02*
G03X649012Y456950I-225J-2351D01*
G01X646879Y459438D02*
G03X647051Y459586I15J157D01*
G01X647312Y460536D02*
G03X647051Y459586I2097J-1087D01*
G01X647312Y460536D02*
G03X647251Y460746I-139J73D01*
G01X650787Y462795D02*
G03X647251Y460746I-2362J0D01*
G01X650787Y462795D02*
X650787D01*
X650522Y461708D02*
G03X650787Y462795I-2097J1087D01*
G01X650522Y461708D02*
G03X650584Y461499I140J-73D01*
G01X649184Y457097D02*
G03X650584Y461499I225J2352D01*
G01X654528Y514961D02*
G03X654528I-2363J0D01*
G01X647441Y518898D02*
G03X647441I-2362J0D01*
G01X649803Y533858D02*
G03X649803I-2362J0D01*
G01X645668Y570200D02*
G03X645656Y570508I-40J153D01*
G01X644732Y570883D02*
G03X645656Y570508I1331J1952D01*
G01X644732Y570883D02*
G03X644486Y570760I-89J-130D01*
G01X639856Y571519D02*
G03X644486Y570760I2270J-653D01*
G01X639856Y571519D02*
G03X639634Y571704I-152J44D01*
G01X640853Y573166D02*
G03X639634Y571704I-2270J653D01*
G01X640853Y573166D02*
G03X641074Y572981I151J-44D01*
G01X643457Y572818D02*
G03X641074Y572981I-1331J-1952D01*
G01X643457Y572818D02*
G03X643703Y572941I89J130D01*
G01X646655Y570548D02*
G03X643703Y572941I-592J2287D01*
G01X646655Y570548D02*
G03X646667Y570240I39J-153D01*
G01X645668Y570200D02*
G03X646667Y570240I592J-2287D01*
G01X652559Y575984D02*
G03X652559I-2362J0D01*
G01X658740Y605394D02*
G03X658740I-3740J0D01*
G01X636811Y453346D02*
G03X636811I-2362J0D01*
G01Y463583D02*
G03X636811I-2362J0D01*
G01X636417Y541142D02*
G03X636417I-2362J0D01*
G01Y548819D02*
G03X636417I-2362J0D01*
G01X620394Y402480D02*
G03X620394I-3740J0D01*
G01X624606Y437795D02*
G03X624606I-2362J0D01*
G01X628937Y453346D02*
G03X628937I-2362J0D01*
G01Y463583D02*
G03X628937I-2362J0D01*
G01Y498425D02*
G03X628937I-2362J0D01*
G01Y508661D02*
G03X628937I-2362J0D01*
G01X630315Y559646D02*
G03X630315I-2362J0D01*
G01X626969Y572441D02*
G03X626969I-2363J0D01*
G01X646457Y600394D02*
G03X646457I-10630J0D01*
G01X621063Y453346D02*
G03X621063I-2362J0D01*
G01Y463583D02*
G03X621063I-2362J0D01*
G01Y508661D02*
G03X621063I-2362J0D01*
G01X610394Y402480D02*
G03X610394I-3740J0D01*
G01X607087Y431693D02*
G03X607087I-2363J0D01*
G01X609252Y446654D02*
G03X609252I-2362J0D01*
G01X608858Y454528D02*
G03X608858I-2362J0D01*
G01X600394Y402480D02*
G03X600394I-3740J0D01*
G01X603740Y449803D02*
G03X603740I-2362J0D01*
G01X605714Y461048D02*
G03X605519Y460806I-76J-139D01*
G01X604595Y461454D02*
G03X605519Y460806I-855J-2202D01*
G01X604595Y461454D02*
G03X604756Y461719I57J147D01*
G01X602953Y465709D02*
G03X604756Y461719I5315J-0D01*
G01X607405Y470953D02*
G03X602953Y465709I863J-5244D01*
G01X607405Y470953D02*
G03X607409Y471263I-25J156D01*
G01X609126D02*
G03X607409I-858J4446D01*
G01X609126D02*
G03X609130Y470953I30J-154D01*
G01X605714Y461048D02*
G03X609130Y470953I2554J4661D01*
G01X612795Y485709D02*
G03X612795I-4527J0D01*
G01X612008Y495709D02*
G03X612008I-3740J0D01*
G01X599016Y483661D02*
G03X599016I-2362J0D01*
G01X605137Y503535D02*
G03X604903I-117J-106D01*
G01X601216Y503761D02*
G03X604903Y503535I1934J1357D01*
G01X601216Y503761D02*
G03X600995Y503798I-129J-91D01*
G01X601540Y507066D02*
G03X600995Y503798I-1934J-1357D01*
G01X601540Y507066D02*
G03X601761Y507029I128J91D01*
G01X604903Y506701D02*
G03X601761Y507029I-1753J-1583D01*
G01X604903Y506701D02*
G03X605137I117J106D01*
G01Y503535D02*
G03Y506701I1753J1583D01*
G01X608268Y522047D02*
X608268D01*
X608321Y522544D02*
G03X608268Y522047I2309J-497D01*
G01X608321Y522544D02*
G03X608210Y522729I-154J33D01*
G01X606643Y524180D02*
G03X608210Y522729I2215J820D01*
G01X606643Y524180D02*
G03X606458Y524278I-148J-55D01*
G01X608121Y527395D02*
G03X606458Y524278I-2215J-820D01*
G01X608121Y527395D02*
G03X608305Y527297I147J55D01*
G01X611220Y525000D02*
G03X608305Y527297I-2362J0D01*
G01X611220Y525000D02*
X611220D01*
X611168Y524503D02*
G03X611220Y525000I-2310J497D01*
G01X611168Y524503D02*
G03X611278Y524319I154J-33D01*
G01X608268Y522047D02*
G03X611278Y524319I2362J0D01*
G01X616732Y572638D02*
G03X616732I-2362J0D01*
G01X610630Y531693D02*
G03X610630I-2362J0D01*
G01X610039Y548819D02*
G03X610039I-2362J0D01*
G01X590394Y402480D02*
G03X590394I-3740J0D01*
G01X580394D02*
G03X580394I-3740J0D01*
G01X583661Y416339D02*
G03X583661I-2362J0D01*
G01X582283Y436024D02*
G03X582283I-2362J0D01*
G01X589763Y444144D02*
G03X589751Y443898I92J-128D01*
G01X590551Y442126D02*
G03X589751Y443898I-2362J-0D01*
G01X586528Y440446D02*
G03X590551Y442126I1661J1680D01*
G01X586528Y440446D02*
G03X586307I-111J-112D01*
G01Y443806D02*
G03Y440446I-1661J-1680D01*
G01Y443806D02*
G03X586528I110J112D01*
G01X586811Y444045D02*
G03X586528Y443806I1378J-1919D01*
G01X586811Y444045D02*
G03X586824Y444291I-91J128D01*
G01X586024Y446063D02*
G03X586824Y444291I2362J-0D01*
G01X589763Y444144D02*
G03X586024Y446063I-1377J1919D01*
G01X594685Y514567D02*
G03X594685I-2362J0D01*
G01X596357Y524346D02*
G03X596147Y524383I-125J-96D01*
G01X596754Y527819D02*
G03X596147Y524383I-1872J-1441D01*
G01X596754Y527819D02*
G03X596963Y527782I124J96D01*
G01X596357Y524346D02*
G03X596963Y527782I1871J1441D01*
G01X597805Y532000D02*
G03X597596Y532086I-146J-58D01*
G01X596506Y536610D02*
G03X597596Y532086I148J-2358D01*
G01X596506Y536610D02*
G03X596654Y536767I-10J157D01*
G01X596654*
G03Y536770I-158J-0*
G01Y536811D02*
G03Y536770I2362J0D01*
G01Y536811D02*
X596654D01*
X596679Y537158D02*
G03X596654Y536811I2337J-347D01*
G01X596679Y537158D02*
G03X596681Y537181I-156J23D01*
G01X596681*
G03X596445Y537318I-158J0*
G01X597612Y539023D02*
G03X596445Y537318I-2336J347D01*
G01X597612Y539023D02*
G03X597611Y539000I156J-23D01*
G01X597611*
G03X597846Y538863I157J0*
G01X600836Y535305D02*
G03X597846Y538863I-1820J1506D01*
G01X600836Y535305D02*
G03X600897Y535059I121J-100D01*
G01X597805Y532000D02*
G03X600897Y535059I2195J874D01*
G01X600984Y552559D02*
G03X600984I-2362J0D01*
G01X581422Y484471D02*
G03X581287Y484298I21J-157D01*
G01X581299Y484055D02*
G03X581287Y484298I-2362J0D01*
G01X578617Y486396D02*
G03X581299Y484055I320J-2341D01*
G01X578617Y486396D02*
G03X578753Y486568I-21J156D01*
G01X578740Y486811D02*
G03X578753Y486568I2362J0D01*
G01X579258Y488288D02*
G03X578740Y486811I1844J-1477D01*
G01X579258Y488288D02*
G03X579234Y488509I-122J98D01*
G01X578540Y489418D02*
G03X579234Y488509I2169J936D01*
G01X578540Y489418D02*
G03X578343Y489504I-145J-63D01*
G01X575197Y491732D02*
G03X578343Y489504I2362J0D01*
G01X575197Y491732D02*
X575197D01*
Y491774D02*
G03Y491732I2362J-42D01*
G01Y491774D02*
G03Y491776I-157J2D01*
G01X575197D02*
Y491777D01*
G03X575050Y491934I-157J-0*
G01X577559Y494291D02*
G03X575050Y491934I-2362J0D01*
G01X577559Y494291D02*
X577559D01*
Y494250D02*
G03Y494291I-2362J41D01*
G01Y494250D02*
G03Y494247I157J-3D01*
G01X577559*
G03X577706Y494090I157J0*
G01X579728Y492669D02*
G03X577706Y494090I-2169J-937D01*
G01X579728Y492669D02*
G03X579925Y492583I144J62D01*
G01X582553Y488878D02*
G03X579925Y492583I-1844J1476D01*
G01X582553Y488878D02*
G03X582577Y488656I122J-99D01*
G01X581422Y484471D02*
G03X582577Y488656I-320J2340D01*
G01X585827Y548228D02*
G03X585827I-2362J0D01*
G01X591181Y605394D02*
G03X591181I-4527J0D01*
G01X570394Y402480D02*
G03X570394I-3740J0D01*
G01X572835Y437795D02*
X572835D01*
X572152Y436134D02*
G03X572835Y437795I-1680J1661D01*
G01X572152Y436134D02*
G03Y435913I112J-110D01*
G01X572835Y434252D02*
G03X572152Y435913I-2363J-0D01*
G01X572835Y434252D02*
X572835D01*
X572152Y432591D02*
G03X572835Y434252I-1680J1661D01*
G01X572152Y432591D02*
G03Y432370I112J-111D01*
G01X568793D02*
G03X572152I1679J-1661D01*
G01X568793D02*
G03Y432591I-112J110D01*
G01X568110Y434252D02*
G03X568793Y432591I2362J-0D01*
G01X568110Y434252D02*
X568110D01*
X568793Y435913D02*
G03X568110Y434252I1679J-1661D01*
G01X568793Y435913D02*
G03Y436134I-112J111D01*
G01X572835Y437795D02*
G03X568793Y436134I-2363J0D01*
G01X560394Y402480D02*
G03X560394I-3740J0D01*
G01X553016Y421747D02*
G03X553033Y421818I-140J71D01*
X552990Y421927I-157J0*
X553160Y421991I40J152*
G01X553016Y421747D02*
G03X553160Y421991I2102J-1078D01*
G01X559843Y427559D02*
G03X559843I-2363J0D01*
G01X557690Y494882D02*
G03X556890Y493110I1562J-1772D01*
G01X557690Y494882D02*
G03X557678Y495128I-104J118D01*
G01X556693Y497047D02*
G03X557678Y495128I2362J0D01*
G01X561417Y497047D02*
G03X556693I-2362J0D01*
G01X560617Y495275D02*
G03X561417Y497047I-1562J1772D01*
G01X560617Y495275D02*
G03X560630Y495029I104J-118D01*
G01X556890Y493110D02*
G03X560630Y495029I2362J0D01*
G01X562354Y567274D02*
G03X562133Y567212I-82J-135D01*
G01X561268Y570325D02*
G03X562133Y567212I-1229J-2018D01*
G01X561268Y570325D02*
G03X561489Y570386I82J134D01*
G01X562354Y567274D02*
G03X561489Y570386I1229J2017D01*
G01X572208Y604535D02*
G03X571898Y604531I-155J-29D01*
G01Y606256D02*
G03Y604531I-5244J-862D01*
G01Y606256D02*
G03X572208Y606252I155J26D01*
G01Y604535D02*
G03Y606252I4446J859D01*
G01X550394Y402480D02*
G03X550394I-3740J0D01*
G01X553150Y423228D02*
X553150D01*
X552890Y422151D02*
G03X553150Y423228I-2103J1077D01*
G01X552890Y422151D02*
G03X552872Y422079I140J-72D01*
X552916Y421971I158J0*
X552745Y421906I-40J-153*
G01X553150Y423228D02*
G03X552745Y421906I-2363J0D01*
G01X552559Y475591D02*
G03X552559I-2362J0D01*
G01X557283Y514567D02*
G03X557283I-2755J0D01*
G01X556693Y526378D02*
G03X556693I-2756J0D01*
G01X556496Y538583D02*
G03X556496I-2756J0D01*
G01X541969Y402480D02*
G03X541969I-5315J0D01*
G01X544882Y437205D02*
G03X544882I-2362J0D01*
G01X543307Y451969D02*
G03X543307I-2362J0D01*
G01X543898Y468504D02*
G03X543898I-2363J0D01*
G01X545866Y488780D02*
G03X545866I-2362J0D01*
G01X548622Y510039D02*
G03X548622I-3150J0D01*
G01X547638Y528346D02*
G03X547638I-3150J0D01*
G01X549213Y542913D02*
G03X549213I-3150J0D01*
G01X551969Y595394D02*
G03X551969I-5315J0D01*
G01X550394Y605394D02*
G03X550394I-3740J0D01*
G01X540394Y595394D02*
G03X540394I-3740J0D01*
G01Y605394D02*
G03X540394I-3740J0D01*
G01X530394Y402480D02*
G03X530394I-3740J0D01*
G01X526772Y417717D02*
G03X526772I-2363J0D01*
G01X519188Y425225D02*
G03X519001I-94J-127D01*
G01Y430287D02*
G03Y425225I-1875J-2531D01*
G01Y430287D02*
G03X519188I93J126D01*
G01Y425225D02*
G03Y430287I1875J2531D01*
G01X520866Y439567D02*
G03X520866I-2362J0D01*
G01X525984Y521654D02*
G03X525984I-3149J0D01*
G01X512992Y443504D02*
G03X512992I-2362J0D01*
G01X514764Y453543D02*
G03X514764I-2756J0D01*
G01Y488583D02*
G03X514764I-2756J0D01*
G01Y523819D02*
G03X514764I-2756J0D01*
G01X519188Y556131D02*
G03X519001I-94J-127D01*
G01Y561192D02*
G03Y556131I-1875J-2531D01*
G01Y561192D02*
G03X519188I93J127D01*
G01Y556131D02*
G03Y561192I1875J2530D01*
G01X530394Y595394D02*
G03X530394I-3740J0D01*
G01Y605394D02*
G03X530394I-3740J0D01*
G01X520394Y595394D02*
G03X520394I-3740J0D01*
G01Y605394D02*
G03X520394I-3740J0D01*
G01X497441Y421260D02*
G03X497441I-2362J0D01*
G01X502953Y448425D02*
X502953D01*
X502184Y446363D02*
G03X502953Y448425I-2381J2062D01*
G01X502184Y446363D02*
G03Y446157I119J-103D01*
G01X497741Y441714D02*
G03X502184Y446157I2062J2380D01*
G01X497741Y441714D02*
G03X497535I-103J-119D01*
G01X496694Y446998D02*
G03X497535Y441714I-1222J-2904D01*
G01X496694Y446998D02*
G03X496912Y447143I61J145D01*
X496900Y447204I-157J-0*
G01X502953Y448425D02*
G03X496900Y447204I-3150J0D01*
G01X502099Y481505D02*
G03Y481290I115J-107D01*
G01X497741Y476753D02*
G03X502099Y481290I2062J2381D01*
G01X497741Y476753D02*
G03X497535I-103J-119D01*
G01X496805Y481988D02*
G03X497535Y476753I-1333J-2854D01*
G01X496805Y481988D02*
G03X497011Y482203I67J142D01*
G01X502099Y481505D02*
G03X497011Y482203I-2296J2156D01*
G01X502953Y518307D02*
X502953D01*
X502184Y516245D02*
G03X502953Y518307I-2381J2062D01*
G01X502184Y516245D02*
G03Y516039I119J-103D01*
G01X497741Y511596D02*
G03X502184Y516039I2062J2380D01*
G01X497741Y511596D02*
G03X497535I-103J-119D01*
G01X496694Y516880D02*
G03X497535Y511596I-1222J-2904D01*
G01X496694Y516880D02*
G03X496912Y517025I61J145D01*
X496900Y517086I-157J-0*
G01X502953Y518307D02*
G03X496900Y517086I-3150J0D01*
G01X503346Y575000D02*
G03X503346I-2362J0D01*
G01X510394Y595394D02*
G03X510394I-3740J0D01*
G01Y605394D02*
G03X510394I-3740J0D01*
G01X500394Y595394D02*
G03X500394I-3740J0D01*
G01Y605394D02*
G03X500394I-3740J0D01*
G01X488976Y445276D02*
X488976D01*
X488207Y443213D02*
G03X488976Y445276I-2380J2063D01*
G01X488207Y443213D02*
G03Y443007I119J-103D01*
G01X483446D02*
G03X488207I2381J-2062D01*
G01X483446D02*
G03Y443213I-119J103D01*
G01X488976Y445276D02*
G03X483446Y443213I-3149J-0D01*
G01X490551Y467717D02*
G03X490551I-3149J0D01*
G01X488583Y480118D02*
X488583D01*
X487814Y478056D02*
G03X488583Y480118I-2381J2062D01*
G01X487814Y478056D02*
G03Y477850I119J-103D01*
G01X483052D02*
G03X487814I2381J-2063D01*
G01X483052D02*
G03Y478056I-119J103D01*
G01X488583Y480118D02*
G03X483052Y478056I-3150J0D01*
G01X489173Y503346D02*
G03X489173I-3149J0D01*
G01Y515354D02*
X489173D01*
X488404Y513292D02*
G03X489173Y515354I-2380J2062D01*
G01X488404Y513292D02*
G03Y513086I119J-103D01*
G01X483643D02*
G03X488404I2381J-2062D01*
G01X483643D02*
G03Y513292I-119J103D01*
G01X489173Y515354D02*
G03X483643Y513292I-3149J0D01*
G01X490551Y537992D02*
G03X490551I-3149J0D01*
G01X490394Y595394D02*
G03X490394I-3740J0D01*
G01X491969Y605394D02*
G03X491969I-5315J0D01*
G01X480315Y445276D02*
X480315D01*
X479546Y443213D02*
G03X480315Y445276I-2381J2063D01*
G01X479546Y443213D02*
G03Y443007I119J-103D01*
G01X474785D02*
G03X479546I2380J-2062D01*
G01X474785D02*
G03Y443213I-119J103D01*
G01X480315Y445276D02*
G03X474785Y443213I-3150J-0D01*
G01X481299Y467717D02*
G03X481299I-3149J0D01*
G01X479921Y480118D02*
X479921D01*
X479152Y478056D02*
G03X479921Y480118I-2380J2062D01*
G01X479152Y478056D02*
G03Y477850I119J-103D01*
G01X474391D02*
G03X479152I2381J-2063D01*
G01X474391D02*
G03Y478056I-119J103D01*
G01X479921Y480118D02*
G03X474391Y478056I-3149J0D01*
G01X471654Y440945D02*
G03X471654I-3150J0D01*
G01X471457Y460433D02*
G03X471457I-3150J0D01*
G01Y467717D02*
G03X471457I-3150J0D01*
G01X471260Y475787D02*
G03X471260I-3150J0D01*
G01X456890Y405118D02*
G03X456890I-3740J0D01*
G01X460039Y455118D02*
G03X460039I-3149J0D01*
G01X447047Y405118D02*
G03X447047I-3740J0D01*
G01X446850Y455118D02*
G03X446850I-3149J0D01*
G01X450722Y459676D02*
G03X450459I-131J-87D01*
G01Y463158D02*
G03Y459676I-2624J-1741D01*
G01Y463158D02*
G03X450722I132J87D01*
G01Y459676D02*
G03Y463158I2624J1741D01*
G01X460039Y467717D02*
G03X460039I-3149J0D01*
G01X464398Y494779D02*
G03X464145I-126J-94D01*
G01X463355Y494029D02*
G03X464145Y494779I-1741J2625D01*
G01X463355Y494029D02*
G03Y493766I87J-131D01*
G01X459873D02*
G03X463355I1741J-2624D01*
G01X459873D02*
G03Y494029I-87J132D01*
G01X464145Y498528D02*
G03X459873Y494029I-2531J-1874D01*
G01X464145Y498528D02*
G03X464398I127J94D01*
G01Y494779D02*
G03Y498528I2531J1875D01*
G01X475787Y503346D02*
G03X475787I-3149J0D01*
G01X480512Y515354D02*
X480512D01*
X479743Y513292D02*
G03X480512Y515354I-2381J2062D01*
G01X479743Y513292D02*
G03Y513086I119J-103D01*
G01X474982D02*
G03X479743I2380J-2062D01*
G01X474982D02*
G03Y513292I-119J103D01*
G01X480512Y515354D02*
G03X474982Y513292I-3150J0D01*
G01X481299Y537992D02*
G03X481299I-3149J0D01*
G01X480394Y595394D02*
G03X480394I-3740J0D01*
G01Y605394D02*
G03X480394I-3740J0D01*
G01X471850Y511024D02*
G03X471850I-3149J0D01*
G01X471457Y530709D02*
G03X471457I-3150J0D01*
G01Y537992D02*
G03X471457I-3150J0D01*
G01X464764Y503346D02*
G03X464764I-3150J0D01*
G01X452561Y500056D02*
G03Y499747I30J-154D01*
G01X453710Y494029D02*
G03X452561Y499747I-1741J2625D01*
G01X453710Y494029D02*
G03Y493766I87J-131D01*
G01X450227D02*
G03X453710I1742J-2624D01*
G01X450227D02*
G03Y494029I-87J132D01*
G01X451376Y499747D02*
G03X450227Y494029I593J-3093D01*
G01X451376Y499747D02*
G03Y500056I-30J155D01*
G01X452561D02*
G03X451376I-592J3094D01*
G01X460827Y525394D02*
G03X460827I-3150J0D01*
G01X440709Y468701D02*
G03X440484Y468888I-150J49D01*
G01X441968Y470669D02*
G03X440484Y468888I-2992J985D01*
G01X441968Y470669D02*
G03X442193Y470482I150J-49D01*
G01X440709Y468701D02*
G03X442193Y470482I2992J-984D01*
G01X432846Y430802D02*
G03Y430615I126J-93D01*
G01Y426865D02*
G03Y430615I-2531J1875D01*
G01Y426865D02*
G03Y426678I126J-93D01*
G01X427784D02*
G03X432846I2531J-1875D01*
G01X427784D02*
G03Y426865I-126J94D01*
G01Y430615D02*
G03Y426865I2531J-1875D01*
G01Y430615D02*
G03Y430802I-126J94D01*
G01X432846D02*
G03X427784I-2531J1875D01*
G01X432874Y460827D02*
G03X432874I-3150J0D01*
G01Y467913D02*
G03X432874I-3150J0D01*
G01X439173Y484843D02*
G03X439173I-3149J0D01*
G01X442717Y496654D02*
G03X442717I-3150J0D01*
G01X439173Y508465D02*
G03X439173I-3149J0D01*
G01X441308Y523345D02*
G03X441046Y523177I-119J-102D01*
G01X441339Y521850D02*
G03X441046Y523177I-3150J0D01*
G01X441339Y521850D02*
X441339D01*
X440582Y523899D02*
G03X441339Y521850I-2393J-2049D01*
G01X440582Y523899D02*
G03X440844Y524068I119J102D01*
G01X440551Y525394D02*
G03X440844Y524068I3150J-0D01*
G01X440551Y525394D02*
X440551D01*
X441308Y523345D02*
G03X440551Y525394I2393J2049D01*
G01X450722Y529952D02*
G03X450459I-131J-87D01*
G01Y533434D02*
G03Y529952I-2624J-1741D01*
G01Y533434D02*
G03X450722I132J87D01*
G01Y529952D02*
G03Y533434I2624J1741D01*
G01X460827Y537992D02*
G03X460827I-3150J0D01*
G01X460617Y564996D02*
G03X460432Y564841I-28J-155D01*
G01X460432*
G03Y564836I157J-0*
G01X460433Y564764D02*
G03X460432Y564836I-2362J-0D01*
G01X457799Y562417D02*
G03X460433Y564764I272J2347D01*
G01X457799Y562417D02*
G03X457651Y562171I-19J-156D01*
G01X455981Y563173D02*
G03X457651Y562171I-272J-2346D01*
G01X455981Y563173D02*
G03X456129Y563419I18J157D01*
G01X458478Y567091D02*
G03X456129Y563419I-407J-2327D01*
G01X458478Y567091D02*
G03X458663Y567246I27J155D01*
G01X458663*
G03Y567251I-158J-0*
G01X458661Y567323D02*
G03X458663Y567251I2363J-0D01*
G01X460617Y564996D02*
G03X458661Y567323I407J2327D01*
G01X471969Y595394D02*
G03X471969I-5315J0D01*
G01X470394Y605394D02*
G03X470394I-3740J0D01*
G01X460394Y595394D02*
G03X460394I-3740J0D01*
G01Y605394D02*
G03X460394I-3740J0D01*
G01X446850Y537992D02*
G03X446850I-3149J0D01*
G01X449016Y559646D02*
G03X449016I-2362J0D01*
G01X431036Y495876D02*
G03Y495660I115J-108D01*
G01X426444D02*
G03X431036I2296J-2156D01*
G01X426444D02*
G03Y495876I-115J108D01*
G01X426209Y496157D02*
G03X426444Y495876I2531J1874D01*
G01X426209Y496157D02*
G03X425956I-126J-94D01*
G01X420988Y496036D02*
G03X425956Y496157I2437J1995D01*
G01X420988Y496036D02*
G03X420744I-122J-99D01*
G01X417452Y501063D02*
G03X420744Y496036I855J-3032D01*
G01X417452Y501063D02*
G03X417565Y501241I-43J151D01*
G01X418565Y504115D02*
G03X417565Y501241I2104J-2343D01*
G01X418565Y504115D02*
G03Y504349I-105J117D01*
G01X417600Y507401D02*
G03X418565Y504349I3069J-708D01*
G01X417600Y507401D02*
G03X417488Y507589I-153J36D01*
G01X420744Y512625D02*
G03X417488Y507589I-2437J-1995D01*
G01X420744Y512625D02*
G03X420988I122J100D01*
G01X423886Y507514D02*
G03X420988Y512625I-461J3116D01*
G01X423886Y507514D02*
G03X423755Y507327I23J-156D01*
G01X422774Y504349D02*
G03X423754Y507327I-2105J2344D01*
G01X422774Y504349D02*
G03Y504115I105J-117D01*
G01X423294Y503513D02*
G03X422774Y504115I-2625J-1741D01*
G01X423294Y503513D02*
G03X423556I131J87D01*
G01X429293Y501286D02*
G03X423556Y503513I-3112J486D01*
G01X429293Y501286D02*
G03X429291Y501262I156J-24D01*
G01X429291*
G03X429415Y501108I158J-0*
G01X431036Y495876D02*
G03X429415Y501108I-2296J2155D01*
G01X430685Y528693D02*
G03Y528393I48J-150D01*
G01X432874Y525394D02*
G03X430685Y528393I-3150J-0D01*
G01X426575Y525394D02*
G03X432874I3149J-0D01*
G01X428764Y528393D02*
G03X426575Y525394I960J-2999D01*
G01X428764Y528393D02*
G03Y528693I-48J150D01*
G01X426575Y531693D02*
G03X428764Y528693I3149J-0D01*
G01X430685D02*
G03X426575Y531693I-961J3000D01*
G01X437180Y550404D02*
G03X437007Y550247I-15J-157D01*
G01X437007*
G03Y550244I158J0*
G01X437008Y550197D02*
G03X437007Y550244I-2362J-0D01*
G01X434868Y552549D02*
G03X437008Y550197I-222J-2352D01*
G01X434868Y552549D02*
G03X435040Y552705I14J156D01*
G01X435040*
G03Y552709I-158J0*
G01X435039Y552756D02*
G03X435040Y552709I2363J-0D01*
G01X437180Y550404D02*
G03X435039Y552756I222J2352D01*
G01X443504Y560039D02*
G03X443504I-2362J0D01*
G01X450394Y595394D02*
G03X450394I-3740J0D01*
G01X441929Y567520D02*
G03X441929I-2362J0D01*
G01X451969Y605394D02*
G03X451969I-5315J0D01*
G01X436024Y560039D02*
G03X436024I-2363J0D01*
G01X436614Y571850D02*
G03X436614I-2362J0D01*
G01X440394Y595394D02*
G03X440394I-3740J0D01*
G01Y605394D02*
G03X440394I-3740J0D01*
G01X418110Y407480D02*
G03X418110I-10630J0D01*
G01X422047Y456102D02*
G03X422047I-3346J0D01*
G01X419104Y478609D02*
G03X418888I-108J-114D01*
G01X414737Y483343D02*
G03X418888Y478609I1995J-2437D01*
G01X414737Y483343D02*
G03Y483586I-100J122D01*
G01X418727D02*
G03X414737I-1995J2438D01*
G01X418727D02*
G03Y483343I100J-121D01*
G01X418888Y483202D02*
G03X418727Y483343I-2156J-2296D01*
G01X418888Y483202D02*
G03X419104I108J114D01*
G01Y478609D02*
G03Y483202I2156J2297D01*
G01X427953Y556496D02*
G03X427953I-2362J0D01*
G01Y568701D02*
G03X427953I-2362J0D01*
G01Y580906D02*
G03X427953I-2362J0D01*
G01X430394Y595394D02*
G03X430394I-3740J0D01*
G01Y605394D02*
G03X430394I-3740J0D01*
G01X422244Y543701D02*
G03X422244I-2362J0D01*
G01X409449Y481890D02*
G03X409449I-3150J0D01*
G01X411024Y496654D02*
G03X411024I-3150J0D01*
G01X410630Y510630D02*
G03X410630I-3150J0D01*
G01X404134Y486811D02*
G03X404134I-3740J0D01*
G01Y496654D02*
G03X404134I-3740J0D01*
G01Y506496D02*
G03X404134I-3740J0D01*
G01X406220Y526654D02*
G03X406220I-3740J0D01*
G01X407795Y536654D02*
G03X407795I-5315J0D01*
G01X406220Y546654D02*
G03X406220I-3740J0D01*
G01Y556654D02*
G03X406220I-3740J0D01*
G01Y566654D02*
G03X406220I-3740J0D01*
G01X418110Y600394D02*
G03X418110I-10630J0D01*
G01X748995Y601888D02*
X753937D01*
X748239Y601180D02*
X753937D01*
X747004Y600471D02*
X753937D01*
X646438Y599762D02*
X753937D01*
X646372Y599054D02*
X753937D01*
X646257Y598345D02*
X753937D01*
X646093Y597637D02*
X753937D01*
X645876Y596928D02*
X753937D01*
X645603Y596219D02*
X753937D01*
X645269Y595511D02*
X753937D01*
X644867Y594802D02*
X753937D01*
X644388Y594093D02*
X753937D01*
X643818Y593385D02*
X753937D01*
X643136Y592676D02*
X753937D01*
X642307Y591967D02*
X753937D01*
X641262Y591259D02*
X753937D01*
X639839Y590550D02*
X753937D01*
X637108Y589841D02*
X753937D01*
X395669Y589133D02*
X753937D01*
X395669Y588424D02*
X753937D01*
X395669Y587715D02*
X753937D01*
X395669Y587007D02*
X753937D01*
X395669Y586298D02*
X753937D01*
X681933Y585589D02*
X753937D01*
X683222Y584881D02*
X753937D01*
X683678Y584172D02*
X753937D01*
X683850Y583463D02*
X753937D01*
X732828Y582755D02*
X753937D01*
X733883Y582046D02*
X753937D01*
X734300Y581337D02*
X753937D01*
X734446Y580629D02*
X753937D01*
X734373Y579920D02*
X753937D01*
X734059Y579211D02*
X753937D01*
X733329Y578503D02*
X753937D01*
X669017Y577794D02*
X753937D01*
X669380Y577085D02*
X753937D01*
X669488Y576377D02*
X753937D01*
X670623Y575668D02*
X753937D01*
X671678Y574959D02*
X753937D01*
X672095Y574251D02*
X753937D01*
X672241Y573542D02*
X753937D01*
X672169Y572833D02*
X753937D01*
X671854Y572125D02*
X753937D01*
X671124Y571416D02*
X753937D01*
X647090Y570707D02*
X753937D01*
X647370Y569999D02*
X753937D01*
X648179Y569290D02*
X753937D01*
X648526Y568581D02*
X753937D01*
X648622Y567873D02*
X753937D01*
X648500Y567164D02*
X753937D01*
X668348Y566455D02*
X753937D01*
X668976Y565747D02*
X753937D01*
X669244Y565038D02*
X753937D01*
X682720Y564329D02*
X753937D01*
X684009Y563621D02*
X753937D01*
X686740Y562912D02*
X753937D01*
X687550Y562203D02*
X753937D01*
X687896Y561495D02*
X753937D01*
X687992Y560786D02*
X753937D01*
X687870Y560077D02*
X753937D01*
X687489Y559369D02*
X753937D01*
X686571Y558660D02*
X753937D01*
X686448Y557951D02*
X753937D01*
X686746Y557243D02*
X753937D01*
X686806Y556534D02*
X753937D01*
X688511Y555825D02*
X753937D01*
X689321Y555117D02*
X753937D01*
X689667Y554408D02*
X753937D01*
X689763Y553699D02*
X753937D01*
X689642Y552991D02*
X753937D01*
X689260Y552282D02*
X753937D01*
X688343Y551574D02*
X753937D01*
X661702Y550865D02*
X753937D01*
X683710Y550156D02*
X753937D01*
X684568Y549448D02*
X753937D01*
X684931Y548739D02*
X753937D01*
X685039Y548030D02*
X753937D01*
X684930Y547322D02*
X753937D01*
X684566Y546613D02*
X753937D01*
X683704Y545904D02*
X753937D01*
X662421Y545196D02*
X753937D01*
X672994Y544487D02*
X753937D01*
X673908Y543778D02*
X753937D01*
X674288Y543070D02*
X753937D01*
X674409Y542361D02*
X753937D01*
X674312Y541652D02*
X753937D01*
X681459Y540944D02*
X753937D01*
X682372Y540235D02*
X753937D01*
X682753Y539526D02*
X753937D01*
X682874Y538818D02*
X753937D01*
X682777Y538109D02*
X753937D01*
X682430Y537400D02*
X753937D01*
X681617Y536692D02*
X753937D01*
X648473Y535983D02*
X753937D01*
X649332Y535274D02*
X753937D01*
X717791Y534566D02*
X753937D01*
X718290Y533857D02*
X753937D01*
X718488Y533148D02*
X753937D01*
X718464Y532440D02*
X753937D01*
X718209Y531731D02*
X753937D01*
X717608Y531022D02*
X753937D01*
X662781Y530314D02*
X753937D01*
X661700Y529605D02*
X753937D01*
X663025Y528896D02*
X753937D01*
X663547Y528188D02*
X753937D01*
X663759Y527479D02*
X753937D01*
X663746Y526770D02*
X753937D01*
X663506Y526062D02*
X753937D01*
X662932Y525353D02*
X753937D01*
X611194Y524644D02*
X753937D01*
X612049Y523936D02*
X753937D01*
X612676Y523227D02*
X753937D01*
X612945Y522518D02*
X753937D01*
X612980Y521810D02*
X753937D01*
X645930Y521101D02*
X753937D01*
X646908Y520392D02*
X753937D01*
X647306Y519684D02*
X753937D01*
X647440Y518975D02*
X753937D01*
X688176Y518266D02*
X753937D01*
X688834Y517558D02*
X753937D01*
X689117Y516849D02*
X753937D01*
X689165Y516140D02*
X753937D01*
X688992Y515432D02*
X753937D01*
X688535Y514723D02*
X753937D01*
X687234Y514014D02*
X753937D01*
X653851Y513306D02*
X753937D01*
X593627Y512597D02*
X753937D01*
X555176Y511888D02*
X753937D01*
X548408Y511180D02*
X753937D01*
X628093Y510471D02*
X753937D01*
X628665Y509762D02*
X753937D01*
X628904Y509054D02*
X753937D01*
X628916Y508345D02*
X753937D01*
X682710Y507637D02*
X753937D01*
X683232Y506928D02*
X753937D01*
X683444Y506219D02*
X753937D01*
X683431Y505511D02*
X753937D01*
X683191Y504802D02*
X753937D01*
X682617Y504093D02*
X753937D01*
X680446Y503385D02*
X753937D01*
X680147Y502676D02*
X753937D01*
X679453Y501967D02*
X753937D01*
X663526Y501259D02*
X753937D01*
X663242Y500550D02*
X753937D01*
X662582Y499841D02*
X753937D01*
X628829Y499133D02*
X753937D01*
X628937Y498424D02*
X753937D01*
X628828Y497715D02*
X753937D01*
X682467Y497007D02*
X753937D01*
X683126Y496298D02*
X753937D01*
X683409Y495589D02*
X753937D01*
X683456Y494881D02*
X753937D01*
X683284Y494172D02*
X753937D01*
X682826Y493463D02*
X753937D01*
X681525Y492755D02*
X753937D01*
X731340Y492046D02*
X753937D01*
X731968Y491337D02*
X753937D01*
X732236Y490629D02*
X753937D01*
X732272Y489920D02*
X753937D01*
X732086Y489211D02*
X753937D01*
X731607Y488503D02*
X753937D01*
X612286Y487794D02*
X753937D01*
X612581Y487085D02*
X753937D01*
X732523Y486377D02*
X753937D01*
X733813Y485668D02*
X753937D01*
X734269Y484959D02*
X753937D01*
X734441Y484251D02*
X753937D01*
X734392Y483542D02*
X753937D01*
X734108Y482833D02*
X753937D01*
X733448Y482125D02*
X753937D01*
X714956Y481416D02*
X753937D01*
X679528Y480707D02*
X753937D01*
X679418Y479999D02*
X753937D01*
X679054Y479290D02*
X753937D01*
X678192Y478581D02*
X753937D01*
X673354Y477873D02*
X753937D01*
X674164Y477164D02*
X753937D01*
X674510Y476455D02*
X753937D01*
X674606Y475747D02*
X753937D01*
X674484Y475038D02*
X753937D01*
X674103Y474329D02*
X753937D01*
X673185Y473621D02*
X753937D01*
X611828Y472912D02*
X753937D01*
X611133Y472203D02*
X753937D01*
X609924Y471495D02*
X753937D01*
X609839Y470786D02*
X753937D01*
X611295Y470077D02*
X753937D01*
X612122Y469369D02*
X753937D01*
X612688Y468660D02*
X753937D01*
X613086Y467951D02*
X753937D01*
X613356Y467243D02*
X753937D01*
X613518Y466534D02*
X753937D01*
X635190Y465825D02*
X753937D01*
X648862Y465117D02*
X753937D01*
X650151Y464408D02*
X753937D01*
X650608Y463699D02*
X753937D01*
X650779Y462991D02*
X753937D01*
X650731Y462282D02*
X753937D01*
X650517Y461574D02*
X753937D01*
X675655Y460865D02*
X753937D01*
X676632Y460156D02*
X753937D01*
X677031Y459448D02*
X753937D01*
X677164Y458739D02*
X753937D01*
X677079Y458030D02*
X753937D01*
X676749Y457322D02*
X753937D01*
X675979Y456613D02*
X753937D01*
X648699Y455904D02*
X753937D01*
X696746Y455196D02*
X753937D01*
X697344Y454487D02*
X753937D01*
X697598Y453778D02*
X753937D01*
X697622Y453070D02*
X753937D01*
X697422Y452361D02*
X753937D01*
X696922Y451652D02*
X753937D01*
X603447Y450944D02*
X753937D01*
X603700Y450235D02*
X753937D01*
X603724Y449526D02*
X753937D01*
X607837Y448818D02*
X753937D01*
X608750Y448109D02*
X753937D01*
X609131Y447400D02*
X753937D01*
X609252Y446692D02*
X753937D01*
X609155Y445983D02*
X753937D01*
X608808Y445274D02*
X753937D01*
X710722Y444566D02*
X753937D01*
X711321Y443857D02*
X753937D01*
X711574Y443148D02*
X753937D01*
X711598Y442440D02*
X753937D01*
X711399Y441731D02*
X753937D01*
X710898Y441022D02*
X753937D01*
X589704Y440314D02*
X753937D01*
X623762Y439605D02*
X753937D01*
X624334Y438896D02*
X753937D01*
X624573Y438188D02*
X753937D01*
X624585Y437479D02*
X753937D01*
X624372Y436770D02*
X753937D01*
X623849Y436062D02*
X753937D01*
X582186Y435353D02*
X753937D01*
X581839Y434644D02*
X753937D01*
X605466Y433936D02*
X753937D01*
X606521Y433227D02*
X753937D01*
X606938Y432518D02*
X753937D01*
X607084Y431810D02*
X753937D01*
X607011Y431101D02*
X753937D01*
X606696Y430392D02*
X753937D01*
X605967Y429684D02*
X753937D01*
X572077Y428975D02*
X753937D01*
X654446Y428266D02*
X753937D01*
X655825Y427558D02*
X753937D01*
X656422Y426849D02*
X753937D01*
X656745Y426140D02*
X753937D01*
X656881Y425432D02*
X753937D01*
X656854Y424723D02*
X753937D01*
X656659Y424014D02*
X753937D01*
X656260Y423306D02*
X753937D01*
X656592Y422597D02*
X753937D01*
X656826Y421888D02*
X753937D01*
X656889Y421180D02*
X753937D01*
X656789Y420471D02*
X753937D01*
X656511Y419762D02*
X753937D01*
X655988Y419054D02*
X753937D01*
X654934Y418345D02*
X753937D01*
X638965Y417637D02*
X753937D01*
X640699Y416928D02*
X753937D01*
X641879Y416219D02*
X753937D01*
X642792Y415511D02*
X753937D01*
X643533Y414802D02*
X753937D01*
X644149Y414093D02*
X753937D01*
X644666Y413385D02*
X753937D01*
X645100Y412676D02*
X753937D01*
X645463Y411967D02*
X753937D01*
X645763Y411259D02*
X753937D01*
X646004Y410550D02*
X753937D01*
X646191Y409841D02*
X753937D01*
X646328Y409133D02*
X753937D01*
X646415Y408424D02*
X753937D01*
X715919Y407715D02*
X753937D01*
X717786Y407007D02*
X753937D01*
X718698Y406298D02*
X753937D01*
X747079Y405589D02*
X753937D01*
X749520Y602597D02*
X753934D01*
X747868Y404881D02*
X753917D01*
X749888Y603306D02*
X753892D01*
X748336Y404172D02*
X753845D01*
X750133Y604014D02*
X753797D01*
X748609Y403463D02*
X753721D01*
X750273Y604723D02*
X753650D01*
X748730Y402755D02*
X753543D01*
X750315Y605432D02*
X753446D01*
X748715Y402046D02*
X753307D01*
X750262Y606140D02*
X753183D01*
X748561Y401337D02*
X753008D01*
X750112Y606849D02*
X752855D01*
X748250Y400629D02*
X752640D01*
X749854Y607558D02*
X752454D01*
X747726Y399920D02*
X752194D01*
X749472Y608266D02*
X751969D01*
X746817Y399211D02*
X751656D01*
X748927Y608975D02*
X751385D01*
X718525Y398503D02*
X751004D01*
X748138Y609684D02*
X750672D01*
X717507Y397794D02*
X750203D01*
X746806Y610392D02*
X749786D01*
X638049Y397085D02*
X749181D01*
X400983Y611101D02*
X748623D01*
X401848Y396377D02*
X747758D01*
X402752Y611810D02*
X746855D01*
X736806Y610392D02*
X743194D01*
X736817Y399211D02*
X743183D01*
X737004Y600471D02*
X742996D01*
X737079Y405589D02*
X742921D01*
X737726Y399920D02*
X742274D01*
X737868Y404881D02*
X742132D01*
X738138Y609684D02*
X741862D01*
X738239Y601180D02*
X741761D01*
X738250Y400629D02*
X741750D01*
X738336Y404172D02*
X741664D01*
X738561Y401337D02*
X741439D01*
X738609Y403463D02*
X741391D01*
X738715Y402046D02*
X741285D01*
X738730Y402755D02*
X741270D01*
X738927Y608975D02*
X741073D01*
X738995Y601888D02*
X741005D01*
X739472Y608266D02*
X740528D01*
X739520Y602597D02*
X740480D01*
X739854Y607558D02*
X740146D01*
X739921Y603306D02*
X740079D01*
X706806Y610392D02*
X733194D01*
X726817Y399211D02*
X733183D01*
X707004Y600471D02*
X732996D01*
X727079Y405589D02*
X732921D01*
X727726Y399920D02*
X732274D01*
X727868Y404881D02*
X732132D01*
X708138Y609684D02*
X731862D01*
X708239Y601180D02*
X731761D01*
X728250Y400629D02*
X731750D01*
X728336Y404172D02*
X731664D01*
X612746Y486377D02*
X731650D01*
X728561Y401337D02*
X731439D01*
X728609Y403463D02*
X731391D01*
X714127Y582755D02*
X731345D01*
X728715Y402046D02*
X731285D01*
X728730Y402755D02*
X731270D01*
X726078Y608975D02*
X731073D01*
X726305Y601888D02*
X731005D01*
X714628Y578503D02*
X730844D01*
X715725Y482125D02*
X730725D01*
X727395Y608266D02*
X730528D01*
X727484Y602597D02*
X730480D01*
X714631Y485668D02*
X730361D01*
X715182Y582046D02*
X730290D01*
X728051Y607558D02*
X730146D01*
X715358Y579211D02*
X730115D01*
X728103Y603306D02*
X730112D01*
X716056Y482833D02*
X730065D01*
X715609Y484959D02*
X729904D01*
X728445Y606849D02*
X729888D01*
X715599Y581337D02*
X729873D01*
X728477Y604014D02*
X729867D01*
X715673Y579920D02*
X729800D01*
X716140Y483542D02*
X729781D01*
X728665Y606140D02*
X729738D01*
X716007Y484251D02*
X729732D01*
X728680Y604723D02*
X729727D01*
X715745Y580629D02*
X729727D01*
X728740Y605432D02*
X729685D01*
X727797Y492046D02*
X728502D01*
X728072Y488503D02*
X728228D01*
X680456Y492046D02*
X724959D01*
X611830Y488503D02*
X724692D01*
X680504Y491337D02*
X724331D01*
X678572Y489211D02*
X724213D01*
X680331Y490629D02*
X724063D01*
X679873Y489920D02*
X724028D01*
X716078Y608975D02*
X723922D01*
X716305Y601888D02*
X723695D01*
X719191Y399211D02*
X723183D01*
X719311Y405589D02*
X722921D01*
X717395Y608266D02*
X722605D01*
X717484Y602597D02*
X722516D01*
X719658Y399920D02*
X722274D01*
X719742Y404881D02*
X722132D01*
X718051Y607558D02*
X721949D01*
X718103Y603306D02*
X721897D01*
X719982Y400629D02*
X721750D01*
X720039Y404172D02*
X721664D01*
X718445Y606849D02*
X721555D01*
X718477Y604014D02*
X721523D01*
X720191Y401337D02*
X721439D01*
X720223Y403463D02*
X721391D01*
X718665Y606140D02*
X721335D01*
X718680Y604723D02*
X721320D01*
X720297Y402046D02*
X721285D01*
X720308Y402755D02*
X721270D01*
X718740Y605432D02*
X721260D01*
X663329Y531022D02*
X714675D01*
X649695Y534566D02*
X714493D01*
X646454Y407715D02*
X714081D01*
X663556Y531731D02*
X714074D01*
X662784Y533857D02*
X713994D01*
X708927Y608975D02*
X713922D01*
X663556Y532440D02*
X713820D01*
X663331Y533148D02*
X713795D01*
X708995Y601888D02*
X713695D01*
X612795Y485668D02*
X712928D01*
X683802Y582755D02*
X712644D01*
X709472Y608266D02*
X712605D01*
X679419Y481416D02*
X712603D01*
X709520Y602597D02*
X712516D01*
X640205Y397794D02*
X712493D01*
X646446Y407007D02*
X712214D01*
X668158Y578503D02*
X712144D01*
X612733Y484959D02*
X711950D01*
X709854Y607558D02*
X711949D01*
X709888Y603306D02*
X711897D01*
X679056Y482125D02*
X711834D01*
X683518Y582046D02*
X711590D01*
X710112Y606849D02*
X711555D01*
X612554Y484251D02*
X711552D01*
X710133Y604014D02*
X711523D01*
X678198Y482833D02*
X711503D01*
X641519Y398503D02*
X711475D01*
X612243Y483542D02*
X711419D01*
X427237Y579211D02*
X711414D01*
X710262Y606140D02*
X711335D01*
X710273Y604723D02*
X711320D01*
X646391Y406298D02*
X711302D01*
X710315Y605432D02*
X711260D01*
X682858Y581337D02*
X711173D01*
X427737Y579920D02*
X711099D01*
X427936Y580629D02*
X711026D01*
X706817Y399211D02*
X710809D01*
X707079Y405589D02*
X710689D01*
X707726Y399920D02*
X710342D01*
X707868Y404881D02*
X710258D01*
X708250Y400629D02*
X710018D01*
X708336Y404172D02*
X709961D01*
X708561Y401337D02*
X709809D01*
X708609Y403463D02*
X709777D01*
X708715Y402046D02*
X709703D01*
X708730Y402755D02*
X709692D01*
X607995Y444566D02*
X707782D01*
X590278Y441022D02*
X707606D01*
X589796Y443857D02*
X707183D01*
X590518Y441731D02*
X707105D01*
X590319Y443148D02*
X706930D01*
X590530Y442440D02*
X706906D01*
X639435Y610392D02*
X703194D01*
X696817Y399211D02*
X703183D01*
X646456Y600471D02*
X702996D01*
X697079Y405589D02*
X702921D01*
X697726Y399920D02*
X702274D01*
X697868Y404881D02*
X702132D01*
X640993Y609684D02*
X701862D01*
X646428Y601180D02*
X701761D01*
X698250Y400629D02*
X701750D01*
X698336Y404172D02*
X701664D01*
X698561Y401337D02*
X701439D01*
X698609Y403463D02*
X701391D01*
X698715Y402046D02*
X701285D01*
X698730Y402755D02*
X701270D01*
X696078Y608975D02*
X701073D01*
X696305Y601888D02*
X701005D01*
X697395Y608266D02*
X700528D01*
X697484Y602597D02*
X700480D01*
X698051Y607558D02*
X700146D01*
X698103Y603306D02*
X700112D01*
X698445Y606849D02*
X699888D01*
X698477Y604014D02*
X699867D01*
X698665Y606140D02*
X699738D01*
X698680Y604723D02*
X699727D01*
X698740Y605432D02*
X699685D01*
X686078Y608975D02*
X693922D01*
X648069Y455196D02*
X693806D01*
X686305Y601888D02*
X693695D01*
X636095Y451652D02*
X693629D01*
X636518Y454487D02*
X693207D01*
X686817Y399211D02*
X693183D01*
X636596Y452361D02*
X693129D01*
X636771Y453778D02*
X692953D01*
X636795Y453070D02*
X692930D01*
X687079Y405589D02*
X692921D01*
X687395Y608266D02*
X692605D01*
X687484Y602597D02*
X692516D01*
X687726Y399920D02*
X692274D01*
X687868Y404881D02*
X692132D01*
X688051Y607558D02*
X691949D01*
X688103Y603306D02*
X691897D01*
X688250Y400629D02*
X691750D01*
X688336Y404172D02*
X691664D01*
X688445Y606849D02*
X691555D01*
X688477Y604014D02*
X691523D01*
X688561Y401337D02*
X691439D01*
X688609Y403463D02*
X691391D01*
X688665Y606140D02*
X691335D01*
X688680Y604723D02*
X691320D01*
X688715Y402046D02*
X691285D01*
X688730Y402755D02*
X691270D01*
X688740Y605432D02*
X691260D01*
X661811Y551574D02*
X686460D01*
X654330Y514014D02*
X686388D01*
X661703Y552282D02*
X685543D01*
X647355Y518266D02*
X685446D01*
X661340Y552991D02*
X685161D01*
X654516Y514723D02*
X685088D01*
X660481Y553699D02*
X685040D01*
X647024Y517558D02*
X684788D01*
X654480Y515432D02*
X684630D01*
X653584Y516849D02*
X684505D01*
X654212Y516140D02*
X684457D01*
X676078Y608975D02*
X683922D01*
X600092Y554408D02*
X683849D01*
X668593Y559369D02*
X683771D01*
X676305Y601888D02*
X683695D01*
X676817Y399211D02*
X683183D01*
X630100Y558660D02*
X683141D01*
X677079Y405589D02*
X682921D01*
X437480Y555117D02*
X682689D01*
X677395Y608266D02*
X682605D01*
X677484Y602597D02*
X682516D01*
X629599Y557951D02*
X682450D01*
X677726Y399920D02*
X682274D01*
X522433Y555825D02*
X682252D01*
X523875Y557243D02*
X682151D01*
X677868Y404881D02*
X682132D01*
X523386Y556534D02*
X682092D01*
X678051Y607558D02*
X681949D01*
X678103Y603306D02*
X681897D01*
X669279Y564329D02*
X681847D01*
X678250Y400629D02*
X681750D01*
X678336Y404172D02*
X681664D01*
X583887Y545904D02*
X681650D01*
X661338Y550156D02*
X681645D01*
X678445Y606849D02*
X681555D01*
X678477Y604014D02*
X681523D01*
X678561Y401337D02*
X681439D01*
X678609Y403463D02*
X681391D01*
X678665Y606140D02*
X681335D01*
X678680Y604723D02*
X681320D01*
X678715Y402046D02*
X681285D01*
X678730Y402755D02*
X681270D01*
X678740Y605432D02*
X681260D01*
X395669Y585589D02*
X681060D01*
X669193Y560077D02*
X680922D01*
X634900Y546613D02*
X680788D01*
X660476Y549448D02*
X680786D01*
X680282Y492755D02*
X680680D01*
X669094Y563621D02*
X680558D01*
X635882Y547322D02*
X680424D01*
X636416Y548739D02*
X680423D01*
X636282Y548030D02*
X680315D01*
X669448Y560786D02*
X680262D01*
X427913Y581337D02*
X680135D01*
X668778Y562912D02*
X680101D01*
X669472Y561495D02*
X679978D01*
X669274Y562203D02*
X679929D01*
X395669Y584881D02*
X679770D01*
X628464Y497007D02*
X679737D01*
X677441Y540944D02*
X679565D01*
X628703Y507637D02*
X679495D01*
X427659Y582046D02*
X679474D01*
X678778Y536692D02*
X679407D01*
X395669Y584172D02*
X679314D01*
X427061Y582755D02*
X679190D01*
X395669Y583463D02*
X679142D01*
X627602Y496298D02*
X679079D01*
X628179Y506928D02*
X678973D01*
X611678Y494172D02*
X678921D01*
X612006Y495589D02*
X678796D01*
X611915Y494881D02*
X678748D01*
X611137Y489211D02*
X677727D01*
X608980Y506219D02*
X677540D01*
X674136Y540944D02*
X677283D01*
X663575Y501967D02*
X676846D01*
X611259Y493463D02*
X676784D01*
X609930Y489920D02*
X676426D01*
X609219Y505511D02*
X676388D01*
X663403Y502676D02*
X676152D01*
X673271Y478581D02*
X676138D01*
X673276Y482833D02*
X676133D01*
X610562Y492755D02*
X676126D01*
X583055Y490629D02*
X675968D01*
X609231Y504802D02*
X675951D01*
X675235Y536692D02*
X675947D01*
X662946Y503385D02*
X675853D01*
X609025Y492046D02*
X675843D01*
X582857Y491337D02*
X675796D01*
X661657Y504093D02*
X675793D01*
X675517Y540235D02*
X675664D01*
X674133Y479290D02*
X675277D01*
X674135Y482125D02*
X675275D01*
X674497Y479999D02*
X674912D01*
X674498Y481416D02*
X674912D01*
X651300Y460865D02*
X673952D01*
X666078Y608975D02*
X673922D01*
X666305Y601888D02*
X673695D01*
X648968Y456613D02*
X673627D01*
X666817Y399211D02*
X673183D01*
X651663Y460156D02*
X672974D01*
X667079Y405589D02*
X672921D01*
X650436Y457322D02*
X672858D01*
X667395Y608266D02*
X672605D01*
X651772Y459448D02*
X672576D01*
X651298Y458030D02*
X672527D01*
X667484Y602597D02*
X672516D01*
X651662Y458739D02*
X672442D01*
X663592Y536692D02*
X672403D01*
X667726Y399920D02*
X672274D01*
X667868Y404881D02*
X672132D01*
X668051Y607558D02*
X671949D01*
X668103Y603306D02*
X671897D01*
X664752Y537400D02*
X671774D01*
X668250Y400629D02*
X671750D01*
X668336Y404172D02*
X671664D01*
X665289Y539526D02*
X671653D01*
X668445Y606849D02*
X671555D01*
X668477Y604014D02*
X671523D01*
X665189Y538109D02*
X671505D01*
X665349Y538818D02*
X671468D01*
X668561Y401337D02*
X671439D01*
X668609Y403463D02*
X671391D01*
X668665Y606140D02*
X671335D01*
X668680Y604723D02*
X671320D01*
X612285Y473621D02*
X671303D01*
X668715Y402046D02*
X671285D01*
X668730Y402755D02*
X671270D01*
X668740Y605432D02*
X671260D01*
X611767Y478581D02*
X671217D01*
X611765Y482833D02*
X671212D01*
X612245Y477873D02*
X671134D01*
X663573Y544487D02*
X671100D01*
X664991Y540235D02*
X670942D01*
X612580Y474329D02*
X670385D01*
X611038Y479290D02*
X670355D01*
X611034Y482125D02*
X670353D01*
X612555Y477164D02*
X670324D01*
X664009Y543778D02*
X670187D01*
X664300Y540944D02*
X670129D01*
X612745Y475038D02*
X670004D01*
X609715Y479999D02*
X669991D01*
X609707Y481416D02*
X669990D01*
X612733Y476455D02*
X669978D01*
X612795Y475747D02*
X669882D01*
X502532Y480707D02*
X669882D01*
X664168Y543070D02*
X669806D01*
X663808Y541652D02*
X669782D01*
X664108Y542361D02*
X669685D01*
X647952Y571416D02*
X668640D01*
X648316Y572125D02*
X667910D01*
X648425Y572833D02*
X667595D01*
X648317Y573542D02*
X667523D01*
X651801Y574251D02*
X666099D01*
X395669Y578503D02*
X666094D01*
X630299Y559369D02*
X665659D01*
X648118Y566455D02*
X665510D01*
X459538Y562912D02*
X665243D01*
X652325Y574959D02*
X665237D01*
X651715Y577794D02*
X665235D01*
X630275Y560077D02*
X665059D01*
X457634Y562203D02*
X664978D01*
X647201Y565747D02*
X664883D01*
X652538Y575668D02*
X664873D01*
X652287Y577085D02*
X664872D01*
X630021Y560786D02*
X664804D01*
X629423Y561495D02*
X664780D01*
X460138Y563621D02*
X664765D01*
X652526Y576377D02*
X664764D01*
X461624Y565038D02*
X664614D01*
X460393Y564329D02*
X664579D01*
X656078Y608975D02*
X663922D01*
X656305Y601888D02*
X663695D01*
X656817Y399211D02*
X663183D01*
X657079Y405589D02*
X662921D01*
X657395Y608266D02*
X662605D01*
X657484Y602597D02*
X662516D01*
X601375Y536692D02*
X662392D01*
X657726Y399920D02*
X662274D01*
X657868Y404881D02*
X662132D01*
X658051Y607558D02*
X661949D01*
X658103Y603306D02*
X661897D01*
X658250Y400629D02*
X661750D01*
X658336Y404172D02*
X661664D01*
X658445Y606849D02*
X661555D01*
X658477Y604014D02*
X661523D01*
X658561Y401337D02*
X661439D01*
X658609Y403463D02*
X661391D01*
X658665Y606140D02*
X661335D01*
X658680Y604723D02*
X661320D01*
X658715Y402046D02*
X661285D01*
X658730Y402755D02*
X661270D01*
X658740Y605432D02*
X661260D01*
X601303Y537400D02*
X661233D01*
X548234Y545196D02*
X661201D01*
X636236Y540235D02*
X660993D01*
X609373Y529605D02*
X660943D01*
X600989Y538109D02*
X660795D01*
X609018Y504093D02*
X660784D01*
X635779Y539526D02*
X660695D01*
X634478Y538818D02*
X660635D01*
X636409Y540944D02*
X660507D01*
X548791Y544487D02*
X660049D01*
X611194Y525353D02*
X659902D01*
X628466Y499841D02*
X659859D01*
X636362Y541652D02*
X659814D01*
X606342Y528896D02*
X659810D01*
X610185Y530314D02*
X659659D01*
X649803Y533857D02*
X659657D01*
X549092Y543778D02*
X659613D01*
X636078Y542361D02*
X659514D01*
X608494Y503385D02*
X659495D01*
X635420Y543070D02*
X659454D01*
X610968Y526062D02*
X659329D01*
X607631Y528188D02*
X659288D01*
X627607Y500550D02*
X659199D01*
X610533Y531022D02*
X659112D01*
X649694Y533148D02*
X659110D01*
X610422Y526770D02*
X659088D01*
X608088Y527479D02*
X659076D01*
X489101Y502676D02*
X659038D01*
X488382Y501259D02*
X658915D01*
X648468Y531731D02*
X658885D01*
X649330Y532440D02*
X658885D01*
X488855Y501967D02*
X658866D01*
X636332Y549448D02*
X658422D01*
X600691Y553699D02*
X658416D01*
X636002Y550156D02*
X657560D01*
X600944Y552991D02*
X657558D01*
X635236Y550865D02*
X657196D01*
X600968Y552282D02*
X657195D01*
X600769Y551574D02*
X657087D01*
X642100Y608975D02*
X653922D01*
X646351Y601888D02*
X653695D01*
X642507Y399211D02*
X653183D01*
X559734Y428266D02*
X653035D01*
X646287Y405589D02*
X652921D01*
X642969Y608266D02*
X652605D01*
X582546Y418345D02*
X652547D01*
X646226Y602597D02*
X652516D01*
X643299Y399920D02*
X652274D01*
X646134Y404881D02*
X652132D01*
X643680Y607558D02*
X651949D01*
X646050Y603306D02*
X651897D01*
X643954Y400629D02*
X651750D01*
X645929Y404172D02*
X651664D01*
X559843Y427558D02*
X651655D01*
X644272Y606849D02*
X651555D01*
X645821Y604014D02*
X651523D01*
X556842Y419054D02*
X651492D01*
X644502Y401337D02*
X651439D01*
X645668Y403463D02*
X651391D01*
X644769Y606140D02*
X651335D01*
X645535Y604723D02*
X651320D01*
X644963Y402046D02*
X651285D01*
X645349Y402755D02*
X651270D01*
X645187Y605432D02*
X651260D01*
X553148Y423306D02*
X651220D01*
X559733Y426849D02*
X651059D01*
X557299Y419762D02*
X650969D01*
X556483Y422597D02*
X650889D01*
X553015Y424014D02*
X650821D01*
X646255Y516849D02*
X650746D01*
X559369Y426140D02*
X650735D01*
X557472Y420471D02*
X650691D01*
X557141Y421888D02*
X650654D01*
X552617Y424723D02*
X650626D01*
X558507Y425432D02*
X650599D01*
X557425Y421180D02*
X650592D01*
X594320Y513306D02*
X650480D01*
X594085Y516140D02*
X650119D01*
X594620Y514014D02*
X650001D01*
X594521Y515432D02*
X649851D01*
X594680Y514723D02*
X649815D01*
X395669Y577794D02*
X648679D01*
X647954Y574251D02*
X648592D01*
X502094Y577085D02*
X648107D01*
X647095Y574959D02*
X648069D01*
X636245Y465117D02*
X647989D01*
X502904Y576377D02*
X647867D01*
X640053Y575668D02*
X647856D01*
X605922Y460156D02*
X647156D01*
X610456Y460865D02*
X647064D01*
X646732Y459448D02*
X646950D01*
X636662Y464408D02*
X646699D01*
X606094Y459448D02*
X646575D01*
X610630Y531731D02*
X646414D01*
X601228Y535983D02*
X646409D01*
X635691Y461574D02*
X646403D01*
X636808Y463699D02*
X646243D01*
X636421Y462282D02*
X646119D01*
X636736Y462991D02*
X646071D01*
X610509Y532440D02*
X645552D01*
X600816Y535274D02*
X645550D01*
X462783Y565747D02*
X645319D01*
X635919Y455196D02*
X645238D01*
X610128Y533148D02*
X645188D01*
X601649Y534566D02*
X645187D01*
X644323Y569999D02*
X645150D01*
X609215Y533857D02*
X645079D01*
X644483Y570707D02*
X645036D01*
X640651Y574959D02*
X645031D01*
X606046Y458739D02*
X644965D01*
X608416Y455904D02*
X644609D01*
X605762Y458030D02*
X644488D01*
X561506Y566455D02*
X644401D01*
X643886Y569290D02*
X644340D01*
X607606Y456613D02*
X644339D01*
X605102Y457322D02*
X644303D01*
X612794Y521101D02*
X644227D01*
X640905Y574251D02*
X644172D01*
X564610Y567164D02*
X644020D01*
X642726Y568581D02*
X643994D01*
X592933Y516849D02*
X643902D01*
X565471Y567873D02*
X643898D01*
X640929Y573542D02*
X643809D01*
X643434Y572833D02*
X643654D01*
X612316Y520392D02*
X643250D01*
X502862Y517558D02*
X643133D01*
X525292Y519684D02*
X642851D01*
X502953Y518266D02*
X642802D01*
X524492Y518975D02*
X642718D01*
X565836Y568581D02*
X641526D01*
X565945Y569290D02*
X640366D01*
X565837Y569999D02*
X639929D01*
X626735Y571416D02*
X639829D01*
X626211Y570707D02*
X639769D01*
X503250Y575668D02*
X637113D01*
X626947Y572125D02*
X636937D01*
X614807Y574959D02*
X636514D01*
X626936Y572833D02*
X636436D01*
X626125Y574251D02*
X636260D01*
X626696Y573542D02*
X636237D01*
X408761Y589841D02*
X634546D01*
X627316Y465825D02*
X633707D01*
X600262Y538818D02*
X633633D01*
X409703Y397085D02*
X633604D01*
X608522Y546613D02*
X633210D01*
X627817Y461574D02*
X633206D01*
X628045Y455196D02*
X632979D01*
X608858Y550865D02*
X632874D01*
X628221Y451652D02*
X632803D01*
X549209Y543070D02*
X632690D01*
X583273Y417637D02*
X632689D01*
X628371Y465117D02*
X632653D01*
X628547Y462282D02*
X632477D01*
X628643Y454487D02*
X632380D01*
X597633Y539526D02*
X632332D01*
X628722Y452361D02*
X632302D01*
X628788Y464408D02*
X632236D01*
X609504Y547322D02*
X632228D01*
X568460Y610392D02*
X632218D01*
X628862Y462991D02*
X632162D01*
X628897Y453778D02*
X632126D01*
X609624Y550156D02*
X632108D01*
X628921Y453070D02*
X632103D01*
X628934Y463699D02*
X632089D01*
X549164Y542361D02*
X632032D01*
X597474Y540235D02*
X631874D01*
X609904Y548030D02*
X631828D01*
X548841Y590550D02*
X631815D01*
X609954Y549448D02*
X631778D01*
X595885Y541652D02*
X631749D01*
X597037Y540944D02*
X631701D01*
X610038Y548739D02*
X631694D01*
X539161Y397794D02*
X631448D01*
X583587Y416928D02*
X630954D01*
X588101Y609684D02*
X630660D01*
X549993Y591259D02*
X630391D01*
X540179Y398503D02*
X630135D01*
X583658Y416219D02*
X629775D01*
X589423Y608975D02*
X629553D01*
X550717Y591967D02*
X629347D01*
X618471Y399211D02*
X629147D01*
X583512Y415511D02*
X628862D01*
X590153Y608266D02*
X628684D01*
X551221Y592676D02*
X628517D01*
X619380Y399920D02*
X628354D01*
X583093Y414802D02*
X628120D01*
X590630Y607558D02*
X627974D01*
X551574Y593385D02*
X627835D01*
X619903Y400629D02*
X627700D01*
X582033Y414093D02*
X627504D01*
X590941Y606849D02*
X627381D01*
X551807Y594093D02*
X627265D01*
X620215Y401337D02*
X627152D01*
X416320Y413385D02*
X626987D01*
X591119Y606140D02*
X626884D01*
X551935Y594802D02*
X626786D01*
X620368Y402046D02*
X626691D01*
X416754Y412676D02*
X626553D01*
X522439Y561495D02*
X626483D01*
X591181Y605432D02*
X626467D01*
X551967Y595511D02*
X626385D01*
X524132Y557951D02*
X626307D01*
X620384Y402755D02*
X626305D01*
X417117Y411967D02*
X626190D01*
X591131Y604723D02*
X626118D01*
X551904Y596219D02*
X626051D01*
X620262Y403463D02*
X625985D01*
X417416Y411259D02*
X625891D01*
X523388Y560786D02*
X625884D01*
X619442Y465825D02*
X625833D01*
X590966Y604014D02*
X625832D01*
X524213Y558660D02*
X625806D01*
X551742Y596928D02*
X625778D01*
X619989Y404172D02*
X625725D01*
X417657Y410550D02*
X625650D01*
X523876Y560077D02*
X625630D01*
X524132Y559369D02*
X625607D01*
X590671Y603306D02*
X625603D01*
X551472Y597637D02*
X625561D01*
X611961Y496298D02*
X625548D01*
X487473Y500550D02*
X625542D01*
X619522Y404881D02*
X625520D01*
X417845Y409841D02*
X625462D01*
X590214Y602597D02*
X625428D01*
X551074Y598345D02*
X625396D01*
X618733Y405589D02*
X625366D01*
X619943Y461574D02*
X625332D01*
X417981Y409133D02*
X625326D01*
X589519Y601888D02*
X625302D01*
X550507Y599054D02*
X625282D01*
X540352Y406298D02*
X625263D01*
X454899Y408424D02*
X625239D01*
X588309Y601180D02*
X625226D01*
X549681Y599762D02*
X625216D01*
X539440Y407007D02*
X625207D01*
X537573Y407715D02*
X625199D01*
X568658Y600471D02*
X625197D01*
X620171Y455196D02*
X625105D01*
X620219Y510471D02*
X625057D01*
X620305Y506928D02*
X624970D01*
X620347Y451652D02*
X624929D01*
X620497Y465117D02*
X624779D01*
X611775Y497007D02*
X624686D01*
X452445Y499841D02*
X624684D01*
X620673Y462282D02*
X624603D01*
X620769Y454487D02*
X624506D01*
X620791Y509762D02*
X624485D01*
X620829Y507637D02*
X624447D01*
X620848Y452361D02*
X624428D01*
X620914Y464408D02*
X624362D01*
X611424Y497715D02*
X624322D01*
X609773Y499133D02*
X624321D01*
X620988Y462991D02*
X624288D01*
X621023Y453778D02*
X624252D01*
X621030Y509054D02*
X624245D01*
X621042Y508345D02*
X624234D01*
X621047Y453070D02*
X624229D01*
X621060Y463699D02*
X624215D01*
X610840Y498424D02*
X624213D01*
X616096Y574251D02*
X623088D01*
X615732Y570707D02*
X623002D01*
X616552Y573542D02*
X622516D01*
X616392Y571416D02*
X622478D01*
X616724Y572833D02*
X622277D01*
X616676Y572125D02*
X622265D01*
X571991Y439605D02*
X620726D01*
X582283Y436062D02*
X620639D01*
X572562Y438896D02*
X620154D01*
X582162Y436770D02*
X620116D01*
X580868Y438188D02*
X619915D01*
X581782Y437479D02*
X619903D01*
X613581Y465825D02*
X617959D01*
X611607Y461574D02*
X617458D01*
X608762Y455196D02*
X617231D01*
X548592Y510471D02*
X617183D01*
X608408Y506928D02*
X617096D01*
X602848Y451652D02*
X617055D01*
X613550Y465117D02*
X616905D01*
X612331Y462282D02*
X616729D01*
X608858Y454487D02*
X616632D01*
X548610Y509762D02*
X616611D01*
X600971Y507637D02*
X616572D01*
X607437Y452361D02*
X616554D01*
X613421Y464408D02*
X616487D01*
X612835Y462991D02*
X616414D01*
X608736Y453778D02*
X616378D01*
X548464Y509054D02*
X616371D01*
X548128Y508345D02*
X616360D01*
X608355Y453070D02*
X616355D01*
X613188Y463699D02*
X616341D01*
X608471Y399211D02*
X614836D01*
X608733Y405589D02*
X614574D01*
X503346Y574959D02*
X613934D01*
X609380Y399920D02*
X613927D01*
X609522Y404881D02*
X613785D01*
X609903Y400629D02*
X613404D01*
X609989Y404172D02*
X613318D01*
X610215Y401337D02*
X613092D01*
X610262Y403463D02*
X613045D01*
X565473Y570707D02*
X613009D01*
X610368Y402046D02*
X612939D01*
X610384Y402755D02*
X612923D01*
X503224Y574251D02*
X612644D01*
X564615Y571416D02*
X612348D01*
X502843Y573542D02*
X612188D01*
X436598Y572125D02*
X612064D01*
X501925Y572833D02*
X612016D01*
X525721Y520392D02*
X608944D01*
X525935Y521101D02*
X608465D01*
X525863Y522518D02*
X608315D01*
X525980Y521810D02*
X608280D01*
X582357Y492046D02*
X607510D01*
X602148Y533857D02*
X607321D01*
X525563Y523227D02*
X607297D01*
X547375Y529605D02*
X607163D01*
X585188Y546613D02*
X606832D01*
X597387Y481416D02*
X606828D01*
X502832Y479999D02*
X606820D01*
X560165Y499133D02*
X606762D01*
X599695Y523936D02*
X606749D01*
X542145Y470786D02*
X606697D01*
X442122Y471495D02*
X606612D01*
X583031Y489920D02*
X606605D01*
X600268Y550865D02*
X606496D01*
X602346Y533148D02*
X606407D01*
X546948Y530314D02*
X606350D01*
X605487Y460865D02*
X606080D01*
X602322Y532440D02*
X606027D01*
X601467Y531022D02*
X606003D01*
X579689Y492755D02*
X605974D01*
X603525Y448818D02*
X605943D01*
X602067Y531731D02*
X605906D01*
X585646Y547322D02*
X605850D01*
X590213Y444566D02*
X605785D01*
X584830Y550156D02*
X605730D01*
X560975Y498424D02*
X605695D01*
X543274Y452361D02*
X605555D01*
X598448Y482125D02*
X605501D01*
X502949Y479290D02*
X605498D01*
X555056Y528896D02*
X605469D01*
X585818Y548030D02*
X605450D01*
X442078Y472203D02*
X605402D01*
X585488Y549448D02*
X605400D01*
X582776Y489211D02*
X605399D01*
X459662Y456613D02*
X605386D01*
X604668Y506928D02*
X605372D01*
X585771Y548739D02*
X605316D01*
X604754Y503385D02*
X605285D01*
X579166Y493463D02*
X605277D01*
X543297Y470077D02*
X605241D01*
X561321Y497715D02*
X605111D01*
X603024Y448109D02*
X605029D01*
X590613Y445274D02*
X604972D01*
X577578Y494172D02*
X604858D01*
X598471Y399211D02*
X604836D01*
X604177Y461574D02*
X604807D01*
X598866Y482833D02*
X604770D01*
X502904Y478581D02*
X604768D01*
X561417Y497007D02*
X604760D01*
X486719Y472912D02*
X604707D01*
X582751Y488503D02*
X604705D01*
X590333Y447400D02*
X604649D01*
X543035Y453070D02*
X604637D01*
X590747Y445983D02*
X604625D01*
X577484Y494881D02*
X604620D01*
X513430Y455904D02*
X604576D01*
X598733Y405589D02*
X604574D01*
X576443Y496298D02*
X604574D01*
X600296Y524644D02*
X604544D01*
X577171Y495589D02*
X604529D01*
X590663Y446692D02*
X604528D01*
X543734Y469369D02*
X604414D01*
X599013Y483542D02*
X604292D01*
X550807Y477873D02*
X604291D01*
X542463Y453778D02*
X604256D01*
X551501Y473621D02*
X604250D01*
X583250Y487794D02*
X604249D01*
X514214Y455196D02*
X604230D01*
X470857Y462282D02*
X604205D01*
X596400Y528188D02*
X604180D01*
X514597Y454487D02*
X604134D01*
X581026Y433936D02*
X603983D01*
X598941Y484251D02*
X603981D01*
X551959Y477164D02*
X603980D01*
X552194Y474329D02*
X603955D01*
X583449Y487085D02*
X603955D01*
X599380Y399920D02*
X603927D01*
X600550Y525353D02*
X603884D01*
X543892Y468660D02*
X603848D01*
X598627Y484959D02*
X603803D01*
X552395Y476455D02*
X603802D01*
X552494Y475038D02*
X603790D01*
X583424Y486377D02*
X603790D01*
X599522Y404881D02*
X603785D01*
X597900Y485668D02*
X603740D01*
X552554Y475747D02*
X603740D01*
X599877Y527479D02*
X603723D01*
X470145Y462991D02*
X603700D01*
X600575Y526062D02*
X603600D01*
X600376Y526770D02*
X603551D01*
X572601Y429684D02*
X603482D01*
X543832Y467951D02*
X603449D01*
X599903Y400629D02*
X603404D01*
X455517Y463699D02*
X603347D01*
X599989Y404172D02*
X603318D01*
X471243Y461574D02*
X603304D01*
X543533Y467243D02*
X603179D01*
X454334Y464408D02*
X603114D01*
X600215Y401337D02*
X603092D01*
X600262Y403463D02*
X603045D01*
X542839Y466534D02*
X603017D01*
X489180Y465117D02*
X602986D01*
X489920Y465825D02*
X602954D01*
X600368Y402046D02*
X602939D01*
X572601Y433227D02*
X602928D01*
X600384Y402755D02*
X602923D01*
X572813Y430392D02*
X602752D01*
X572111Y432518D02*
X602511D01*
X572802Y431101D02*
X602438D01*
X468796Y457322D02*
X602379D01*
X572562Y431810D02*
X602365D01*
X471427Y460865D02*
X602014D01*
X470343Y458030D02*
X601718D01*
X471445Y460156D02*
X601558D01*
X600029Y503385D02*
X601545D01*
X470962Y458739D02*
X601434D01*
X471299Y459448D02*
X601386D01*
X543286Y451652D02*
X599908D01*
X589567Y448109D02*
X599732D01*
X543073Y450944D02*
X599309D01*
X502928Y448818D02*
X599231D01*
X489173Y503385D02*
X599184D01*
X542550Y450235D02*
X599056D01*
X502754Y449526D02*
X599032D01*
X546149Y531022D02*
X598533D01*
X547509Y507637D02*
X598241D01*
X471286Y531731D02*
X597933D01*
X489083Y504093D02*
X597883D01*
X545961Y506928D02*
X597583D01*
X488817Y504802D02*
X597425D01*
X487315Y506219D02*
X597300D01*
X488312Y505511D02*
X597252D01*
X439090Y554408D02*
X597152D01*
X438817Y550865D02*
X596976D01*
X555214Y523936D02*
X596762D01*
X555745Y536692D02*
X596635D01*
X439567Y553699D02*
X596553D01*
X439447Y551574D02*
X596475D01*
X439752Y552991D02*
X596300D01*
X439716Y552282D02*
X596276D01*
X502058Y481416D02*
X595920D01*
X583170Y485668D02*
X595407D01*
X470938Y532440D02*
X595138D01*
X554655Y535983D02*
X595046D01*
X580298Y482125D02*
X594860D01*
X588471Y399211D02*
X594836D01*
X582569Y484959D02*
X594680D01*
X548949Y541652D02*
X594666D01*
X588733Y405589D02*
X594574D01*
X470299Y533148D02*
X594565D01*
X488993Y535274D02*
X594524D01*
X580959Y482833D02*
X594441D01*
X581291Y484251D02*
X594366D01*
X468398Y533857D02*
X594325D01*
X454638Y534566D02*
X594312D01*
X581243Y483542D02*
X594294D01*
X556230Y537400D02*
X593972D01*
X589380Y399920D02*
X593927D01*
X589522Y404881D02*
X593785D01*
X555162Y540944D02*
X593514D01*
X589903Y400629D02*
X593404D01*
X556015Y528188D02*
X593364D01*
X589989Y404172D02*
X593318D01*
X556455Y538109D02*
X593278D01*
X556079Y524644D02*
X593277D01*
X590215Y401337D02*
X593092D01*
X555946Y540235D02*
X593077D01*
X590262Y403463D02*
X593045D01*
X556486Y538818D02*
X592979D01*
X590368Y402046D02*
X592939D01*
X590384Y402755D02*
X592923D01*
X556330Y539526D02*
X592919D01*
X556463Y527479D02*
X592792D01*
X556495Y525353D02*
X592754D01*
X556665Y526770D02*
X592552D01*
X556675Y526062D02*
X592541D01*
X556072Y516849D02*
X591713D01*
X556455Y512597D02*
X591019D01*
X556790Y516140D02*
X590561D01*
X556978Y513306D02*
X590325D01*
X557144Y515432D02*
X590125D01*
X557228Y514014D02*
X590026D01*
X557279Y514723D02*
X589966D01*
X502937Y448109D02*
X587205D01*
X586161Y440314D02*
X586674D01*
X586253Y443857D02*
X586582D01*
X512740Y444566D02*
X586559D01*
X502781Y447400D02*
X586439D01*
X512194Y445274D02*
X586159D01*
X502433Y446692D02*
X586109D01*
X502324Y445983D02*
X586025D01*
X578101Y609684D02*
X585206D01*
X578309Y601180D02*
X584998D01*
X578471Y399211D02*
X584836D01*
X578733Y405589D02*
X584574D01*
X579380Y399920D02*
X583927D01*
X579423Y608975D02*
X583884D01*
X579519Y601888D02*
X583788D01*
X579522Y404881D02*
X583785D01*
X579903Y400629D02*
X583404D01*
X579989Y404172D02*
X583318D01*
X580153Y608266D02*
X583154D01*
X520745Y440314D02*
X583131D01*
X580214Y602597D02*
X583093D01*
X580215Y401337D02*
X583092D01*
X580262Y403463D02*
X583045D01*
X547050Y545904D02*
X583042D01*
X512966Y443857D02*
X583038D01*
X580368Y402046D02*
X582939D01*
X580384Y402755D02*
X582923D01*
X580630Y607558D02*
X582677D01*
X580671Y603306D02*
X582636D01*
X520365Y441022D02*
X582557D01*
X512965Y443148D02*
X582516D01*
X580941Y606849D02*
X582366D01*
X580966Y604014D02*
X582341D01*
X519451Y441731D02*
X582317D01*
X512739Y442440D02*
X582304D01*
X581119Y606140D02*
X582188D01*
X581131Y604723D02*
X582176D01*
X581181Y605432D02*
X582126D01*
X437008Y550156D02*
X582099D01*
X406220Y546613D02*
X581741D01*
X436886Y549448D02*
X581441D01*
X406160Y547322D02*
X581283D01*
X436504Y548739D02*
X581158D01*
X435587Y548030D02*
X581111D01*
X415803Y414093D02*
X580565D01*
X555541Y418345D02*
X580053D01*
X415187Y414802D02*
X579505D01*
X526770Y417637D02*
X579326D01*
X545850Y488503D02*
X579241D01*
X525254Y415511D02*
X579087D01*
X526636Y416928D02*
X579012D01*
X572802Y438188D02*
X578974D01*
X545651Y487794D02*
X578954D01*
X526236Y416219D02*
X578940D01*
X572813Y433936D02*
X578816D01*
X545150Y487085D02*
X578756D01*
X545826Y489211D02*
X578641D01*
X513660Y486377D02*
X578500D01*
X572813Y437479D02*
X578061D01*
X572802Y434644D02*
X578004D01*
X572601Y436770D02*
X577680D01*
X572562Y435353D02*
X577656D01*
X502552Y482125D02*
X577576D01*
X572111Y436062D02*
X577559D01*
X502231Y485668D02*
X577211D01*
X502842Y482833D02*
X576915D01*
X502673Y484959D02*
X576755D01*
X502951Y483542D02*
X576631D01*
X502897Y484251D02*
X576583D01*
X545573Y489920D02*
X576044D01*
X544974Y490629D02*
X575471D01*
X560813Y491337D02*
X575230D01*
X569791Y609684D02*
X575206D01*
X569893Y601180D02*
X574998D01*
X568471Y399211D02*
X574836D01*
X568733Y405589D02*
X574574D01*
X561361Y492046D02*
X574463D01*
X561295Y496298D02*
X573950D01*
X569380Y399920D02*
X573927D01*
X570581Y608975D02*
X573884D01*
X570649Y601888D02*
X573788D01*
X569522Y404881D02*
X573785D01*
X569903Y400629D02*
X573404D01*
X561587Y492755D02*
X573403D01*
X569989Y404172D02*
X573318D01*
X560914Y495589D02*
X573223D01*
X571125Y608266D02*
X573154D01*
X571173Y602597D02*
X573093D01*
X570215Y401337D02*
X573092D01*
X570262Y403463D02*
X573045D01*
X561588Y493463D02*
X572985D01*
X570368Y402046D02*
X572939D01*
X570384Y402755D02*
X572923D01*
X560816Y494881D02*
X572909D01*
X561362Y494172D02*
X572838D01*
X571508Y607558D02*
X572677D01*
X571541Y603306D02*
X572636D01*
X571765Y606849D02*
X572366D01*
X571786Y604014D02*
X572341D01*
X571984Y606140D02*
X572123D01*
X520866Y439605D02*
X568954D01*
X559371Y428975D02*
X568868D01*
X544587Y436062D02*
X568834D01*
X433461Y432518D02*
X568834D01*
X544168Y438896D02*
X568383D01*
X543986Y435353D02*
X568383D01*
X433343Y431810D02*
X568383D01*
X558513Y429684D02*
X568344D01*
X544842Y436770D02*
X568344D01*
X433416Y433227D02*
X568344D01*
X544668Y438188D02*
X568143D01*
X432775Y434644D02*
X568143D01*
X433042Y431101D02*
X568143D01*
X544866Y437479D02*
X568131D01*
X433202Y433936D02*
X568131D01*
X522786Y430392D02*
X568131D01*
X488460Y610392D02*
X564847D01*
X558471Y399211D02*
X564836D01*
X548225Y600471D02*
X564649D01*
X558733Y405589D02*
X564574D01*
X559380Y399920D02*
X563927D01*
X559522Y404881D02*
X563785D01*
X489791Y609684D02*
X563516D01*
X489893Y601180D02*
X563414D01*
X559903Y400629D02*
X563404D01*
X559989Y404172D02*
X563318D01*
X560215Y401337D02*
X563092D01*
X560262Y403463D02*
X563045D01*
X560368Y402046D02*
X562939D01*
X560384Y402755D02*
X562923D01*
X547732Y608975D02*
X562726D01*
X547958Y601888D02*
X562658D01*
X562107Y567164D02*
X562556D01*
X436574Y571416D02*
X562550D01*
X549049Y608266D02*
X562182D01*
X549137Y602597D02*
X562134D01*
X549704Y607558D02*
X561799D01*
X549757Y603306D02*
X561766D01*
X436319Y570707D02*
X561692D01*
X550099Y606849D02*
X561542D01*
X550130Y604014D02*
X561521D01*
X550318Y606140D02*
X561391D01*
X550333Y604723D02*
X561381D01*
X550394Y605432D02*
X561339D01*
X463221Y566455D02*
X558573D01*
X435719Y569999D02*
X558391D01*
X463381Y567164D02*
X557972D01*
X468872Y499133D02*
X557945D01*
X462331Y569290D02*
X557891D01*
X463321Y567873D02*
X557717D01*
X463023Y568581D02*
X557693D01*
X512093Y491337D02*
X557691D01*
X469532Y494881D02*
X557688D01*
X469893Y495589D02*
X557197D01*
X464631Y492046D02*
X557143D01*
X468869Y494172D02*
X557142D01*
X469534Y498424D02*
X557136D01*
X464319Y492755D02*
X556917D01*
X463743Y493463D02*
X556916D01*
X470059Y496298D02*
X556815D01*
X469894Y497715D02*
X556789D01*
X470059Y497007D02*
X556693D01*
X551639Y425432D02*
X556453D01*
X523554Y429684D02*
X556448D01*
X523767Y426140D02*
X555591D01*
X523967Y428975D02*
X555590D01*
X524079Y426849D02*
X555227D01*
X524171Y428266D02*
X555226D01*
X524206Y427558D02*
X555118D01*
X548471Y399211D02*
X554836D01*
X526686Y418345D02*
X554696D01*
X548733Y405589D02*
X554574D01*
X549380Y399920D02*
X553927D01*
X548022Y511888D02*
X553879D01*
X549522Y404881D02*
X553785D01*
X553064Y422597D02*
X553753D01*
X549903Y400629D02*
X553404D01*
X526357Y419054D02*
X553395D01*
X549989Y404172D02*
X553318D01*
X550215Y401337D02*
X553092D01*
X550262Y403463D02*
X553045D01*
X552733Y421888D02*
X553017D01*
X502595Y516849D02*
X552983D01*
X550368Y402046D02*
X552939D01*
X525590Y419762D02*
X552937D01*
X550384Y402755D02*
X552923D01*
X489827Y535983D02*
X552825D01*
X547589Y528896D02*
X552818D01*
X551964Y421180D02*
X552812D01*
X497305Y420471D02*
X552764D01*
X525005Y523936D02*
X552660D01*
X547310Y512597D02*
X552600D01*
X548521Y540944D02*
X552318D01*
X502145Y516140D02*
X552265D01*
X502881Y513306D02*
X552077D01*
X502596Y515432D02*
X551911D01*
X547634Y528188D02*
X551859D01*
X502953Y514014D02*
X551828D01*
X523822Y524644D02*
X551795D01*
X502863Y514723D02*
X551776D01*
X490270Y536692D02*
X551735D01*
X547720Y540235D02*
X551534D01*
X547516Y527479D02*
X551411D01*
X545468Y525353D02*
X551379D01*
X490495Y537400D02*
X551251D01*
X547215Y526770D02*
X551209D01*
X546656Y526062D02*
X551199D01*
X490152Y539526D02*
X551151D01*
X490549Y538109D02*
X551025D01*
X490441Y538818D02*
X550994D01*
X523189Y425432D02*
X549936D01*
X497440Y421180D02*
X549611D01*
X502689Y477873D02*
X549587D01*
X521913Y424723D02*
X548958D01*
X487719Y473621D02*
X548893D01*
X497356Y421888D02*
X548842D01*
X433364Y424014D02*
X548560D01*
X497026Y422597D02*
X548511D01*
X502261Y477164D02*
X548435D01*
X496259Y423306D02*
X548426D01*
X488225Y474329D02*
X548199D01*
X501460Y476455D02*
X547999D01*
X488492Y475038D02*
X547900D01*
X488582Y475747D02*
X547840D01*
X537732Y608975D02*
X545575D01*
X537958Y601888D02*
X545349D01*
X488658Y600471D02*
X545082D01*
X420733Y545904D02*
X545076D01*
X438773Y506928D02*
X544984D01*
X540844Y399211D02*
X544836D01*
X540964Y405589D02*
X544574D01*
X468841Y590550D02*
X544466D01*
X489613Y540235D02*
X544406D01*
X539049Y608266D02*
X544258D01*
X539137Y602597D02*
X544170D01*
X541311Y399920D02*
X543927D01*
X421711Y545196D02*
X543892D01*
X541396Y404881D02*
X543785D01*
X502635Y512597D02*
X543635D01*
X469681Y599762D02*
X543627D01*
X488501Y540944D02*
X543605D01*
X539704Y607558D02*
X543603D01*
X539757Y603306D02*
X543550D01*
X514297Y525353D02*
X543509D01*
X439062Y507637D02*
X543436D01*
X541636Y400629D02*
X543404D01*
X422109Y544487D02*
X543335D01*
X541692Y404172D02*
X543318D01*
X469993Y591259D02*
X543314D01*
X540099Y606849D02*
X543208D01*
X540130Y604014D02*
X543177D01*
X421058Y541652D02*
X543177D01*
X541844Y401337D02*
X543092D01*
X541877Y403463D02*
X543045D01*
X422243Y543778D02*
X543034D01*
X540318Y606140D02*
X542989D01*
X540333Y604723D02*
X542974D01*
X421827Y542361D02*
X542962D01*
X541951Y402046D02*
X542939D01*
X541961Y402755D02*
X542923D01*
X502161Y511888D02*
X542923D01*
X422158Y543070D02*
X542917D01*
X540394Y605432D02*
X542914D01*
X471441Y531022D02*
X542827D01*
X487681Y508345D02*
X542817D01*
X537423Y599054D02*
X542800D01*
X538153Y591967D02*
X542591D01*
X501252Y511180D02*
X542537D01*
X488481Y509054D02*
X542481D01*
X489124Y510471D02*
X542353D01*
X488910Y509762D02*
X542335D01*
X513609Y526062D02*
X542320D01*
X538951Y598345D02*
X542233D01*
X539223Y592676D02*
X542086D01*
X513854Y490629D02*
X542034D01*
X471432Y530314D02*
X542028D01*
X514322Y487085D02*
X541858D01*
X539647Y597637D02*
X541835D01*
X460510Y526770D02*
X541761D01*
X539808Y593385D02*
X541733D01*
X471257Y529605D02*
X541601D01*
X540065Y596928D02*
X541565D01*
X540160Y594093D02*
X541500D01*
X460038Y527479D02*
X541460D01*
X514418Y489920D02*
X541435D01*
X540301Y596219D02*
X541403D01*
X470883Y528896D02*
X541387D01*
X540347Y594802D02*
X541372D01*
X514649Y487794D02*
X541357D01*
X470195Y528188D02*
X541343D01*
X540392Y595511D02*
X541340D01*
X514691Y489211D02*
X541182D01*
X514763Y488503D02*
X541158D01*
X431976Y435353D02*
X541053D01*
X488107Y470786D02*
X540926D01*
X520769Y438896D02*
X540871D01*
X395669Y436062D02*
X540452D01*
X520422Y438188D02*
X540372D01*
X490321Y466534D02*
X540232D01*
X395669Y436770D02*
X540198D01*
X519609Y437479D02*
X540173D01*
X489486Y470077D02*
X539774D01*
X490515Y467243D02*
X539538D01*
X514754Y453778D02*
X539427D01*
X502381Y450235D02*
X539340D01*
X490083Y469369D02*
X539337D01*
X490542Y467951D02*
X539239D01*
X490407Y468660D02*
X539178D01*
X514723Y453070D02*
X538855D01*
X512923Y450944D02*
X538817D01*
X514497Y452361D02*
X538615D01*
X514013Y451652D02*
X538604D01*
X527423Y599054D02*
X535884D01*
X455841Y407715D02*
X535735D01*
X527732Y608975D02*
X535575D01*
X527958Y601888D02*
X535349D01*
X528153Y591967D02*
X535154D01*
X528951Y598345D02*
X534356D01*
X529049Y608266D02*
X534258D01*
X529137Y602597D02*
X534170D01*
X411859Y397794D02*
X534146D01*
X529223Y592676D02*
X534084D01*
X456378Y407007D02*
X533868D01*
X529647Y597637D02*
X533660D01*
X529704Y607558D02*
X533603D01*
X529757Y603306D02*
X533550D01*
X529808Y593385D02*
X533499D01*
X530065Y596928D02*
X533242D01*
X530099Y606849D02*
X533208D01*
X530130Y604014D02*
X533177D01*
X530160Y594093D02*
X533147D01*
X413172Y398503D02*
X533128D01*
X530301Y596219D02*
X533006D01*
X530318Y606140D02*
X532989D01*
X530333Y604723D02*
X532974D01*
X530347Y594802D02*
X532960D01*
X456699Y406298D02*
X532956D01*
X530392Y595511D02*
X532915D01*
X530394Y605432D02*
X532914D01*
X528471Y399211D02*
X532463D01*
X528733Y405589D02*
X532343D01*
X529380Y399920D02*
X531996D01*
X529522Y404881D02*
X531911D01*
X529903Y400629D02*
X531672D01*
X529989Y404172D02*
X531615D01*
X530215Y401337D02*
X531463D01*
X530262Y403463D02*
X531430D01*
X530368Y402046D02*
X531356D01*
X530384Y402755D02*
X531346D01*
X517423Y599054D02*
X525884D01*
X517732Y608975D02*
X525575D01*
X517958Y601888D02*
X525349D01*
X518153Y591967D02*
X525154D01*
X414160Y399211D02*
X524836D01*
X456860Y405589D02*
X524574D01*
X518951Y598345D02*
X524356D01*
X519049Y608266D02*
X524258D01*
X519137Y602597D02*
X524170D01*
X519223Y592676D02*
X524084D01*
X414953Y399920D02*
X523927D01*
X456882Y404881D02*
X523785D01*
X519647Y597637D02*
X523660D01*
X519704Y607558D02*
X523603D01*
X414445Y415511D02*
X523565D01*
X519757Y603306D02*
X523550D01*
X519808Y593385D02*
X523499D01*
X415607Y400629D02*
X523404D01*
X456768Y404172D02*
X523318D01*
X520065Y596928D02*
X523242D01*
X496906Y419762D02*
X523229D01*
X520099Y606849D02*
X523208D01*
X520130Y604014D02*
X523177D01*
X520160Y594093D02*
X523147D01*
X416156Y401337D02*
X523092D01*
X456504Y403463D02*
X523045D01*
X520301Y596219D02*
X523006D01*
X520318Y606140D02*
X522989D01*
X520333Y604723D02*
X522974D01*
X520347Y594802D02*
X522960D01*
X455283Y402046D02*
X522939D01*
X456048Y402755D02*
X522923D01*
X520392Y595511D02*
X522915D01*
X520394Y605432D02*
X522914D01*
X413532Y416219D02*
X522582D01*
X495923Y419054D02*
X522462D01*
X412353Y416928D02*
X522183D01*
X395669Y418345D02*
X522132D01*
X410618Y417637D02*
X522049D01*
X514637Y524644D02*
X521847D01*
X502881Y518975D02*
X521178D01*
X514761Y523936D02*
X520664D01*
X502636Y519684D02*
X520377D01*
X517976Y424723D02*
X520213D01*
X514700Y523227D02*
X520106D01*
X502164Y520392D02*
X519949D01*
X514438Y522518D02*
X519806D01*
X512465Y521101D02*
X519734D01*
X518496Y555825D02*
X519693D01*
X513894Y521810D02*
X519689D01*
X518502Y561495D02*
X519687D01*
X518849Y430392D02*
X519340D01*
X512191Y441731D02*
X517557D01*
X395669Y437479D02*
X517399D01*
X500497Y441022D02*
X516643D01*
X487349Y438188D02*
X516586D01*
X433464Y424723D02*
X516276D01*
X488913Y440314D02*
X516263D01*
X488219Y438896D02*
X516239D01*
X488677Y439605D02*
X516142D01*
X507423Y599054D02*
X515884D01*
X427856Y555825D02*
X515756D01*
X457974Y561495D02*
X515750D01*
X507732Y608975D02*
X515575D01*
X432996Y430392D02*
X515403D01*
X507958Y601888D02*
X515349D01*
X508153Y591967D02*
X515154D01*
X433401Y425432D02*
X515000D01*
X427952Y556534D02*
X514803D01*
X458071Y560786D02*
X514801D01*
X433320Y429684D02*
X514635D01*
X433167Y426140D02*
X514422D01*
X508951Y598345D02*
X514356D01*
X427832Y557243D02*
X514314D01*
X457949Y560077D02*
X514313D01*
X509049Y608266D02*
X514258D01*
X433456Y428975D02*
X514222D01*
X509137Y602597D02*
X514170D01*
X432835Y426849D02*
X514110D01*
X509223Y592676D02*
X514084D01*
X448300Y557951D02*
X514057D01*
X457567Y559369D02*
X514057D01*
X433429Y428266D02*
X514018D01*
X433234Y427558D02*
X513983D01*
X456650Y558660D02*
X513976D01*
X509647Y597637D02*
X513660D01*
X509704Y607558D02*
X513603D01*
X509757Y603306D02*
X513550D01*
X509808Y593385D02*
X513499D01*
X510065Y596928D02*
X513242D01*
X510099Y606849D02*
X513208D01*
X510130Y604014D02*
X513177D01*
X510160Y594093D02*
X513147D01*
X510301Y596219D02*
X513006D01*
X510318Y606140D02*
X512989D01*
X510333Y604723D02*
X512974D01*
X510347Y594802D02*
X512960D01*
X510392Y595511D02*
X512915D01*
X510394Y605432D02*
X512914D01*
X464758Y491337D02*
X511923D01*
X501257Y521101D02*
X511551D01*
X501695Y450944D02*
X511093D01*
X459940Y455904D02*
X510586D01*
X460755Y526062D02*
X510406D01*
X501399Y486377D02*
X510356D01*
X464722Y490629D02*
X510161D01*
X441338Y521810D02*
X510122D01*
X395669Y451652D02*
X510003D01*
X460038Y455196D02*
X509802D01*
X460827Y525353D02*
X509718D01*
X438235Y487085D02*
X509694D01*
X464517Y489920D02*
X509598D01*
X458963Y522518D02*
X509578D01*
X458412Y452361D02*
X509518D01*
X459975Y454487D02*
X509419D01*
X460736Y524644D02*
X509378D01*
X437123Y487794D02*
X509367D01*
X464103Y489211D02*
X509325D01*
X459963Y523227D02*
X509316D01*
X459282Y453070D02*
X509293D01*
X459740Y453778D02*
X509262D01*
X460469Y523936D02*
X509254D01*
X463333Y488503D02*
X509253D01*
X501885Y441731D02*
X509069D01*
X502723Y445274D02*
X509066D01*
X502483Y442440D02*
X508521D01*
X502917Y444566D02*
X508520D01*
X502807Y443148D02*
X508295D01*
X502944Y443857D02*
X508294D01*
X497423Y599054D02*
X505884D01*
X497732Y608975D02*
X505575D01*
X497958Y601888D02*
X505349D01*
X498153Y591967D02*
X505154D01*
X498951Y598345D02*
X504356D01*
X499049Y608266D02*
X504258D01*
X499137Y602597D02*
X504170D01*
X499223Y592676D02*
X504084D01*
X499647Y597637D02*
X503660D01*
X499704Y607558D02*
X503603D01*
X499757Y603306D02*
X503550D01*
X499808Y593385D02*
X503499D01*
X500065Y596928D02*
X503242D01*
X500099Y606849D02*
X503208D01*
X500130Y604014D02*
X503177D01*
X500160Y594093D02*
X503147D01*
X500301Y596219D02*
X503006D01*
X500318Y606140D02*
X502989D01*
X500333Y604723D02*
X502974D01*
X500347Y594802D02*
X502960D01*
X500392Y595511D02*
X502915D01*
X500394Y605432D02*
X502914D01*
X436400Y572833D02*
X500043D01*
X395669Y577085D02*
X499875D01*
X435901Y573542D02*
X499126D01*
X496167Y441022D02*
X499109D01*
X395669Y576377D02*
X499065D01*
X395669Y574251D02*
X498744D01*
X395669Y575668D02*
X498718D01*
X395669Y574959D02*
X498622D01*
X496921Y511180D02*
X498354D01*
X441248Y521101D02*
X498349D01*
X438774Y486377D02*
X498207D01*
X497130Y476455D02*
X498146D01*
X395669Y450944D02*
X497912D01*
X497559Y441731D02*
X497717D01*
X440981Y520392D02*
X497443D01*
X439063Y485668D02*
X497375D01*
X395669Y450235D02*
X497225D01*
X496460Y482125D02*
X497029D01*
X440475Y519684D02*
X496970D01*
X439171Y484959D02*
X496933D01*
X395669Y449526D02*
X496852D01*
X488152Y447400D02*
X496825D01*
X487029Y482833D02*
X496764D01*
X488274Y517558D02*
X496744D01*
X439475Y518975D02*
X496725D01*
X439117Y484251D02*
X496709D01*
X395669Y448818D02*
X496678D01*
X487202Y448109D02*
X496669D01*
X438892Y483542D02*
X496656D01*
X487224Y518266D02*
X496654D01*
X487423Y599054D02*
X495884D01*
X490581Y608975D02*
X495575D01*
X490649Y601888D02*
X495349D01*
X488153Y591967D02*
X495154D01*
X488975Y441022D02*
X494778D01*
X487861Y482125D02*
X494485D01*
X488951Y598345D02*
X494356D01*
X491125Y608266D02*
X494258D01*
X395669Y419054D02*
X494234D01*
X488796Y516849D02*
X494181D01*
X491173Y602597D02*
X494170D01*
X489223Y592676D02*
X494084D01*
X489169Y511180D02*
X494024D01*
X433086Y423306D02*
X493898D01*
X488511Y476455D02*
X493815D01*
X488640Y446692D02*
X493691D01*
X489647Y597637D02*
X493660D01*
X491508Y607558D02*
X493603D01*
X491541Y603306D02*
X493550D01*
X489808Y593385D02*
X493499D01*
X488877Y441731D02*
X493391D01*
X488303Y481416D02*
X493302D01*
X395669Y419762D02*
X493252D01*
X490065Y596928D02*
X493242D01*
X491765Y606849D02*
X493208D01*
X489074Y516140D02*
X493184D01*
X491786Y604014D02*
X493177D01*
X490160Y594093D02*
X493147D01*
X432563Y422597D02*
X493131D01*
X489052Y511888D02*
X493114D01*
X488266Y477164D02*
X493015D01*
X490301Y596219D02*
X493006D01*
X491916Y606140D02*
X492989D01*
X491926Y604723D02*
X492974D01*
X490347Y594802D02*
X492960D01*
X488896Y445983D02*
X492952D01*
X490392Y595511D02*
X492915D01*
X491968Y605432D02*
X492914D01*
X395669Y420471D02*
X492852D01*
X431509Y421888D02*
X492802D01*
X488599Y442440D02*
X492793D01*
X488527Y480707D02*
X492744D01*
X395669Y421180D02*
X492718D01*
X489172Y515432D02*
X492679D01*
X488752Y512597D02*
X492641D01*
X487797Y477873D02*
X492586D01*
X488976Y445274D02*
X492552D01*
X488174Y443148D02*
X492468D01*
X488580Y479999D02*
X492444D01*
X489109Y514723D02*
X492413D01*
X488416Y513306D02*
X492395D01*
X488182Y478581D02*
X492372D01*
X488895Y444566D02*
X492358D01*
X488639Y443857D02*
X492332D01*
X488472Y479290D02*
X492327D01*
X488874Y514014D02*
X492323D01*
X478855Y470786D02*
X486696D01*
X479249Y540944D02*
X486302D01*
X477423Y599054D02*
X485884D01*
X479741Y535274D02*
X485810D01*
X479928Y465117D02*
X485623D01*
X480234Y470077D02*
X485317D01*
X480361Y540235D02*
X485190D01*
X478153Y591967D02*
X485154D01*
X480575Y535983D02*
X484976D01*
X480668Y465825D02*
X484883D01*
X448460Y610392D02*
X484847D01*
X478562Y518266D02*
X484824D01*
X473929Y506219D02*
X484732D01*
X480831Y469369D02*
X484720D01*
X480900Y539526D02*
X484651D01*
X468225Y600471D02*
X484649D01*
X474087Y500550D02*
X484575D01*
X481018Y536692D02*
X484533D01*
X481069Y466534D02*
X484482D01*
X478541Y448109D02*
X484451D01*
X481155Y468660D02*
X484397D01*
X479019Y508345D02*
X484367D01*
X481189Y538818D02*
X484362D01*
X478951Y598345D02*
X484356D01*
X481243Y537400D02*
X484308D01*
X478688Y438188D02*
X484304D01*
X481263Y467243D02*
X484288D01*
X481290Y467951D02*
X484261D01*
X481297Y538109D02*
X484254D01*
X478057Y472912D02*
X484147D01*
X479223Y592676D02*
X484084D01*
X478368Y482833D02*
X483837D01*
X479613Y517558D02*
X483773D01*
X474926Y505511D02*
X483735D01*
X474996Y501259D02*
X483665D01*
X479647Y597637D02*
X483660D01*
X479755Y513306D02*
X483631D01*
X479820Y509054D02*
X483566D01*
X449791Y609684D02*
X483516D01*
X479490Y447400D02*
X483502D01*
X479808Y593385D02*
X483499D01*
X479512Y443148D02*
X483480D01*
X479558Y438896D02*
X483434D01*
X449893Y601180D02*
X483414D01*
X480091Y512597D02*
X483295D01*
X480135Y516849D02*
X483251D01*
X480065Y596928D02*
X483242D01*
X475431Y504802D02*
X483230D01*
X475469Y501967D02*
X483192D01*
X480213Y514014D02*
X483173D01*
X479058Y473621D02*
X483147D01*
X480160Y594093D02*
X483147D01*
X480248Y509762D02*
X483138D01*
X479136Y477873D02*
X483069D01*
X479938Y442440D02*
X483054D01*
X479977Y443857D02*
X483015D01*
X479979Y446692D02*
X483013D01*
X480301Y596219D02*
X483006D01*
X479199Y482125D02*
X483005D01*
X480391Y511888D02*
X482995D01*
X480016Y439605D02*
X482976D01*
X480412Y516140D02*
X482974D01*
X475698Y504093D02*
X482964D01*
X480347Y594802D02*
X482960D01*
X475715Y502676D02*
X482946D01*
X480448Y514723D02*
X482938D01*
X480463Y510471D02*
X482923D01*
X480392Y595511D02*
X482915D01*
X480508Y511180D02*
X482878D01*
X480511Y515432D02*
X482875D01*
X475787Y503385D02*
X482874D01*
X480215Y441731D02*
X482777D01*
X480234Y444566D02*
X482758D01*
X480235Y445983D02*
X482758D01*
X480251Y440314D02*
X482741D01*
X477732Y608975D02*
X482726D01*
X479521Y478581D02*
X482684D01*
X480314Y441022D02*
X482678D01*
X480315Y445274D02*
X482677D01*
X477958Y601888D02*
X482658D01*
X479564Y474329D02*
X482641D01*
X479604Y477164D02*
X482600D01*
X479641Y481416D02*
X482563D01*
X479810Y479290D02*
X482394D01*
X479831Y475038D02*
X482374D01*
X479850Y476455D02*
X482355D01*
X479866Y480707D02*
X482339D01*
X479919Y479999D02*
X482286D01*
X479921Y475747D02*
X482284D01*
X479049Y608266D02*
X482182D01*
X479137Y602597D02*
X482134D01*
X479704Y607558D02*
X481799D01*
X479757Y603306D02*
X481766D01*
X480099Y606849D02*
X481542D01*
X480130Y604014D02*
X481521D01*
X480318Y606140D02*
X481391D01*
X480333Y604723D02*
X481381D01*
X480394Y605432D02*
X481339D01*
X469013Y470786D02*
X477444D01*
X469407Y540944D02*
X477050D01*
X469899Y535274D02*
X476558D01*
X470085Y465117D02*
X476372D01*
X395669Y518266D02*
X476162D01*
X470392Y470077D02*
X476065D01*
X470518Y540235D02*
X475938D01*
X470507Y599054D02*
X475884D01*
X395669Y448109D02*
X475790D01*
X470733Y535983D02*
X475724D01*
X470358Y508345D02*
X475705D01*
X470026Y438188D02*
X475643D01*
X470826Y465825D02*
X475631D01*
X467732Y608975D02*
X475575D01*
X469396Y472912D02*
X475486D01*
X470989Y469369D02*
X475468D01*
X471058Y539526D02*
X475399D01*
X467958Y601888D02*
X475349D01*
X471176Y536692D02*
X475281D01*
X471226Y466534D02*
X475230D01*
X438449Y482833D02*
X475176D01*
X470717Y591967D02*
X475154D01*
X471312Y468660D02*
X475145D01*
X395669Y517558D02*
X475112D01*
X471347Y538818D02*
X475110D01*
X471401Y537400D02*
X475056D01*
X471421Y467243D02*
X475036D01*
X471448Y467951D02*
X475009D01*
X471455Y538109D02*
X475002D01*
X470871Y513306D02*
X474970D01*
X471158Y509054D02*
X474905D01*
X395669Y447400D02*
X474840D01*
X470755Y443148D02*
X474819D01*
X470896Y438896D02*
X474773D01*
X471429Y512597D02*
X474634D01*
X395669Y516849D02*
X474590D01*
X469688Y514014D02*
X474512D01*
X470396Y473621D02*
X474486D01*
X471587Y509762D02*
X474476D01*
X470471Y477873D02*
X474408D01*
X471276Y442440D02*
X474393D01*
X471074Y598345D02*
X474356D01*
X469704Y443857D02*
X474353D01*
X395669Y446692D02*
X474352D01*
X437615Y482125D02*
X474344D01*
X471729Y511888D02*
X474334D01*
X471354Y439605D02*
X474315D01*
X395669Y516140D02*
X474312D01*
X395669Y514723D02*
X474276D01*
X471802Y510471D02*
X474261D01*
X469049Y608266D02*
X474258D01*
X471847Y511180D02*
X474216D01*
X395669Y515432D02*
X474214D01*
X469137Y602597D02*
X474170D01*
X471554Y441731D02*
X474115D01*
X395669Y444566D02*
X474097D01*
X395669Y445983D02*
X474096D01*
X471221Y592676D02*
X474084D01*
X471590Y440314D02*
X474080D01*
X469564Y478581D02*
X474022D01*
X471653Y441022D02*
X474017D01*
X395669Y445274D02*
X474016D01*
X470902Y474329D02*
X473980D01*
X470943Y477164D02*
X473939D01*
X424368Y481416D02*
X473902D01*
X423964Y479290D02*
X473733D01*
X471169Y475038D02*
X473712D01*
X471188Y476455D02*
X473694D01*
X424403Y480707D02*
X473678D01*
X471472Y597637D02*
X473660D01*
X424276Y479999D02*
X473624D01*
X471260Y475747D02*
X473622D01*
X469704Y607558D02*
X473603D01*
X469757Y603306D02*
X473550D01*
X471574Y593385D02*
X473499D01*
X471742Y596928D02*
X473242D01*
X470099Y606849D02*
X473208D01*
X470130Y604014D02*
X473177D01*
X471807Y594093D02*
X473147D01*
X471904Y596219D02*
X473006D01*
X470318Y606140D02*
X472989D01*
X470333Y604723D02*
X472974D01*
X471935Y594802D02*
X472960D01*
X471967Y595511D02*
X472915D01*
X470394Y605432D02*
X472914D01*
X462906Y506219D02*
X471346D01*
X463063Y500550D02*
X471189D01*
X463903Y505511D02*
X470349D01*
X463972Y501259D02*
X470280D01*
X464407Y504802D02*
X469845D01*
X464446Y501967D02*
X469806D01*
X464674Y504093D02*
X469578D01*
X464692Y502676D02*
X469560D01*
X464764Y503385D02*
X469488D01*
X455635Y533857D02*
X468216D01*
X459140Y457322D02*
X467819D01*
X395669Y514014D02*
X467713D01*
X457595Y470786D02*
X467601D01*
X395669Y443857D02*
X467304D01*
X458777Y540944D02*
X467208D01*
X439171Y508345D02*
X467044D01*
X395669Y438188D02*
X466981D01*
X441864Y472912D02*
X466825D01*
X459269Y535274D02*
X466715D01*
X423386Y478581D02*
X466656D01*
X425086Y513306D02*
X466530D01*
X458668Y465117D02*
X466529D01*
X456075Y462991D02*
X466469D01*
X459131Y528188D02*
X466419D01*
X456140Y533148D02*
X466315D01*
X458090Y458030D02*
X466271D01*
X395669Y443148D02*
X466253D01*
X439118Y509054D02*
X466243D01*
X458975Y470077D02*
X466222D01*
X395669Y438896D02*
X466112D01*
X459888Y540235D02*
X466096D01*
X425885Y512597D02*
X465972D01*
X460103Y535983D02*
X465882D01*
X441436Y473621D02*
X465824D01*
X438893Y509762D02*
X465815D01*
X459409Y465825D02*
X465788D01*
X456375Y462282D02*
X465757D01*
X422110Y477873D02*
X465750D01*
X395669Y442440D02*
X465732D01*
X454795Y528896D02*
X465731D01*
X456406Y532440D02*
X465676D01*
X426312Y511888D02*
X465672D01*
X395669Y439605D02*
X465654D01*
X455004Y458739D02*
X465652D01*
X459571Y469369D02*
X465626D01*
X438451Y510471D02*
X465600D01*
X457732Y608975D02*
X465575D01*
X460428Y539526D02*
X465556D01*
X437620Y511180D02*
X465555D01*
X395669Y441731D02*
X465454D01*
X460546Y536692D02*
X465438D01*
X395669Y440314D02*
X465418D01*
X459809Y466534D02*
X465388D01*
X456492Y461574D02*
X465371D01*
X455705Y529605D02*
X465357D01*
X395669Y441022D02*
X465355D01*
X457958Y601888D02*
X465349D01*
X456496Y531731D02*
X465328D01*
X440638Y474329D02*
X465318D01*
X455804Y459448D02*
X465316D01*
X459895Y468660D02*
X465302D01*
X395669Y477164D02*
X465277D01*
X460717Y538818D02*
X465268D01*
X460771Y537400D02*
X465214D01*
X460004Y467243D02*
X465193D01*
X456447Y460865D02*
X465187D01*
X456178Y530314D02*
X465182D01*
X456424Y531022D02*
X465173D01*
X456233Y460156D02*
X465170D01*
X460031Y467951D02*
X465166D01*
X460825Y538109D02*
X465160D01*
X448658Y600471D02*
X465082D01*
X395669Y475038D02*
X465051D01*
X395669Y476455D02*
X465032D01*
X463554Y494172D02*
X464990D01*
X463557Y499133D02*
X464986D01*
X395669Y475747D02*
X464961D01*
X411492Y590550D02*
X464466D01*
X459049Y608266D02*
X464258D01*
X459137Y602597D02*
X464170D01*
X418091Y599762D02*
X463627D01*
X459704Y607558D02*
X463603D01*
X459757Y603306D02*
X463550D01*
X412916Y591259D02*
X463314D01*
X460099Y606849D02*
X463208D01*
X460130Y604014D02*
X463177D01*
X460318Y606140D02*
X462989D01*
X460333Y604723D02*
X462974D01*
X460394Y605432D02*
X462914D01*
X457423Y599054D02*
X462800D01*
X458153Y591967D02*
X462591D01*
X458951Y598345D02*
X462233D01*
X459223Y592676D02*
X462086D01*
X459647Y597637D02*
X461835D01*
X459808Y593385D02*
X461733D01*
X460065Y596928D02*
X461565D01*
X460160Y594093D02*
X461500D01*
X460301Y596219D02*
X461403D01*
X460347Y594802D02*
X461372D01*
X460392Y595511D02*
X461340D01*
X452674Y506219D02*
X460323D01*
X453747Y500550D02*
X460165D01*
X453688Y488503D02*
X459895D01*
X441131Y569290D02*
X459716D01*
X453908Y494172D02*
X459675D01*
X453911Y499133D02*
X459671D01*
X454097Y493463D02*
X459486D01*
X454053Y505511D02*
X459326D01*
X454487Y501259D02*
X459256D01*
X454457Y489211D02*
X459125D01*
X441677Y568581D02*
X459025D01*
X454572Y494881D02*
X459011D01*
X454573Y498424D02*
X459009D01*
X454674Y492755D02*
X458909D01*
X454650Y504802D02*
X458821D01*
X454888Y501967D02*
X458783D01*
X441903Y567873D02*
X458726D01*
X454872Y489920D02*
X458711D01*
X454933Y495589D02*
X458650D01*
X454934Y497715D02*
X458649D01*
X441902Y567164D02*
X458640D01*
X454986Y492046D02*
X458597D01*
X454973Y504093D02*
X458554D01*
X455082Y502676D02*
X458537D01*
X455076Y490629D02*
X458507D01*
X455098Y496298D02*
X458485D01*
X455098Y497007D02*
X458484D01*
X455112Y491337D02*
X458471D01*
X455109Y503385D02*
X458465D01*
X444800Y540944D02*
X456578D01*
X441676Y566455D02*
X456422D01*
X444986Y522518D02*
X456392D01*
X445155Y528188D02*
X456223D01*
X444406Y470786D02*
X456184D01*
X445293Y535274D02*
X456085D01*
X404669Y563621D02*
X456004D01*
X441128Y565747D02*
X455923D01*
X447423Y599054D02*
X455884D01*
X405411Y564329D02*
X455749D01*
X405854Y565038D02*
X455725D01*
X444901Y458030D02*
X455690D01*
X450581Y608975D02*
X455575D01*
X445912Y540235D02*
X455466D01*
X445987Y523227D02*
X455391D01*
X445223Y452361D02*
X455367D01*
X450649Y601888D02*
X455349D01*
X446061Y527479D02*
X455317D01*
X446126Y535983D02*
X455252D01*
X448153Y591967D02*
X455154D01*
X445479Y465117D02*
X455112D01*
X446452Y539526D02*
X454926D01*
X446493Y523936D02*
X454885D01*
X446534Y526770D02*
X454844D01*
X446569Y536692D02*
X454809D01*
X445786Y470077D02*
X454805D01*
X448800Y558660D02*
X454768D01*
X445951Y457322D02*
X454639D01*
X446740Y538818D02*
X454638D01*
X446760Y524644D02*
X454618D01*
X446779Y526062D02*
X454599D01*
X395669Y562912D02*
X454599D01*
X446794Y537400D02*
X454584D01*
X446848Y538109D02*
X454530D01*
X446850Y525353D02*
X454528D01*
X446093Y453070D02*
X454497D01*
X446220Y465825D02*
X454371D01*
X448951Y598345D02*
X454356D01*
X451125Y608266D02*
X454258D01*
X446382Y469369D02*
X454208D01*
X451173Y602597D02*
X454170D01*
X446473Y456613D02*
X454117D01*
X449223Y592676D02*
X454084D01*
X446551Y453778D02*
X454039D01*
X446620Y466534D02*
X453971D01*
X446706Y468660D02*
X453885D01*
X448999Y559369D02*
X453850D01*
X446751Y455904D02*
X453840D01*
X446787Y454487D02*
X453804D01*
X442089Y562203D02*
X453789D01*
X446815Y467243D02*
X453776D01*
X446842Y467951D02*
X453749D01*
X446849Y455196D02*
X453741D01*
X449647Y597637D02*
X453660D01*
X451508Y607558D02*
X453603D01*
X451541Y603306D02*
X453550D01*
X449808Y593385D02*
X453499D01*
X448976Y560077D02*
X453468D01*
X448124Y561495D02*
X453443D01*
X448722Y560786D02*
X453347D01*
X450065Y596928D02*
X453242D01*
X451765Y606849D02*
X453208D01*
X451786Y604014D02*
X453177D01*
X450160Y594093D02*
X453147D01*
X450301Y596219D02*
X453006D01*
X451916Y606140D02*
X452989D01*
X451926Y604723D02*
X452974D01*
X450347Y594802D02*
X452960D01*
X450392Y595511D02*
X452915D01*
X451968Y605432D02*
X452914D01*
X448822Y464408D02*
X452359D01*
X449126Y534566D02*
X452055D01*
X449284Y528896D02*
X451898D01*
X449492Y458739D02*
X451689D01*
X431318Y499841D02*
X451492D01*
X445057Y408424D02*
X451400D01*
X438232Y506219D02*
X451263D01*
X450005Y463699D02*
X451176D01*
X450123Y533857D02*
X451058D01*
X445440Y402046D02*
X451016D01*
X450193Y529605D02*
X450988D01*
X450292Y459448D02*
X450889D01*
X445999Y407715D02*
X450458D01*
X446206Y402755D02*
X450251D01*
X418675Y488503D02*
X450249D01*
X430632Y500550D02*
X450190D01*
X441506Y494172D02*
X450029D01*
X441510Y499133D02*
X450026D01*
X446535Y407007D02*
X449921D01*
X437116Y505511D02*
X449884D01*
X431890Y493463D02*
X449840D01*
X446661Y403463D02*
X449795D01*
X446856Y406298D02*
X449600D01*
X446926Y404172D02*
X449531D01*
X403262Y489211D02*
X449480D01*
X429291Y501259D02*
X449450D01*
X447017Y405589D02*
X449439D01*
X447040Y404881D02*
X449417D01*
X442170Y494881D02*
X449365D01*
X442172Y498424D02*
X449364D01*
X427040Y504802D02*
X449287D01*
X431799Y492755D02*
X449263D01*
X402473Y489920D02*
X449065D01*
X429325Y501967D02*
X449049D01*
X442531Y495589D02*
X449004D01*
X442532Y497715D02*
X449003D01*
X428310Y504093D02*
X448964D01*
X431532Y492046D02*
X448951D01*
X430026Y490629D02*
X448861D01*
X429198Y502676D02*
X448855D01*
X442696Y496298D02*
X448839D01*
X442697Y497007D02*
X448839D01*
X428886Y503385D02*
X448828D01*
X431026Y491337D02*
X448825D01*
X395669Y464408D02*
X446847D01*
X431016Y534566D02*
X446543D01*
X431173Y528896D02*
X446386D01*
X432083Y458739D02*
X446178D01*
X437423Y599054D02*
X445884D01*
X431016Y463699D02*
X445664D01*
X432013Y533857D02*
X445546D01*
X432083Y529605D02*
X445477D01*
X432556Y459448D02*
X445377D01*
X443002Y561495D02*
X445184D01*
X438153Y591967D02*
X445154D01*
X432013Y462991D02*
X445106D01*
X432518Y533148D02*
X445041D01*
X442247Y557951D02*
X445007D01*
X432556Y530314D02*
X445003D01*
X432802Y460156D02*
X444949D01*
X411089Y610392D02*
X444847D01*
X432518Y462282D02*
X444806D01*
X432784Y532440D02*
X444775D01*
X432802Y531022D02*
X444757D01*
X432874Y460865D02*
X444734D01*
X432784Y461574D02*
X444689D01*
X432874Y531731D02*
X444685D01*
X418110Y600471D02*
X444649D01*
X443383Y560786D02*
X444585D01*
X443059Y558660D02*
X444507D01*
X438951Y598345D02*
X444356D01*
X443504Y560077D02*
X444331D01*
X443407Y559369D02*
X444308D01*
X439223Y592676D02*
X444084D01*
X439647Y597637D02*
X443660D01*
X412647Y609684D02*
X443516D01*
X439808Y593385D02*
X443499D01*
X418081Y601180D02*
X443414D01*
X440065Y596928D02*
X443242D01*
X440160Y594093D02*
X443147D01*
X440301Y596219D02*
X443006D01*
X442004Y470786D02*
X442995D01*
X440347Y594802D02*
X442960D01*
X440392Y595511D02*
X442915D01*
X437732Y608975D02*
X442726D01*
X437958Y601888D02*
X442658D01*
X405618Y540944D02*
X442601D01*
X431173Y458030D02*
X442501D01*
X441267Y522518D02*
X442415D01*
X431178Y528188D02*
X442247D01*
X439049Y608266D02*
X442182D01*
X395669Y452361D02*
X442178D01*
X439137Y602597D02*
X442134D01*
X407613Y535274D02*
X442109D01*
X431173Y465117D02*
X441923D01*
X439704Y607558D02*
X441799D01*
X439757Y603306D02*
X441766D01*
X418068Y408424D02*
X441558D01*
X440099Y606849D02*
X441542D01*
X440130Y604014D02*
X441521D01*
X406407Y540235D02*
X441489D01*
X421817Y457322D02*
X441450D01*
X441032Y523227D02*
X441415D01*
X440318Y606140D02*
X441391D01*
X440333Y604723D02*
X441381D01*
X432085Y527479D02*
X441340D01*
X440394Y605432D02*
X441339D01*
X420115Y453070D02*
X441308D01*
X407753Y535983D02*
X441275D01*
X432083Y465825D02*
X441182D01*
X416616Y402046D02*
X441174D01*
X406952Y539526D02*
X440950D01*
X422008Y456613D02*
X440928D01*
X432557Y526770D02*
X440868D01*
X421109Y453778D02*
X440850D01*
X440549Y523936D02*
X440844D01*
X407795Y536692D02*
X440832D01*
X432556Y466534D02*
X440782D01*
X439956Y468660D02*
X440696D01*
X407335Y538818D02*
X440661D01*
X422041Y455904D02*
X440651D01*
X439643Y524644D02*
X440642D01*
X432802Y526062D02*
X440623D01*
X418108Y407715D02*
X440616D01*
X421632Y454487D02*
X440615D01*
X407743Y537400D02*
X440607D01*
X432802Y467243D02*
X440587D01*
X432874Y467951D02*
X440560D01*
X407592Y538109D02*
X440553D01*
X421922Y455196D02*
X440552D01*
X432874Y525353D02*
X440551D01*
X417002Y402755D02*
X440408D01*
X434608Y562203D02*
X440195D01*
X418100Y407007D02*
X440079D01*
X434766Y557951D02*
X440037D01*
X417322Y403463D02*
X439953D01*
X418044Y406298D02*
X439758D01*
X417582Y404172D02*
X439689D01*
X417941Y405589D02*
X439597D01*
X417787Y404881D02*
X439574D01*
X435522Y561495D02*
X439281D01*
X435579Y558660D02*
X439224D01*
X435903Y560786D02*
X438901D01*
X435926Y559369D02*
X438877D01*
X436023Y560077D02*
X438780D01*
X406109Y565747D02*
X438006D01*
X427878Y569290D02*
X438003D01*
X432784Y468660D02*
X437997D01*
X431818Y494172D02*
X437627D01*
X431691Y499133D02*
X437624D01*
X426324Y566455D02*
X437458D01*
X427950Y568581D02*
X437457D01*
X427508Y555117D02*
X437323D01*
X395669Y474329D02*
X437315D01*
X427385Y567164D02*
X437232D01*
X427803Y567873D02*
X437231D01*
X431573Y494881D02*
X436964D01*
X431865Y498424D02*
X436962D01*
X395669Y518975D02*
X436903D01*
X432518Y469369D02*
X436808D01*
X432784Y524644D02*
X436735D01*
X431101Y495589D02*
X436603D01*
X431874Y497715D02*
X436602D01*
X395669Y473621D02*
X436517D01*
X431370Y496298D02*
X436437D01*
X431718Y497007D02*
X436437D01*
X432013Y470077D02*
X436249D01*
X395669Y472912D02*
X436089D01*
X431016Y470786D02*
X435949D01*
X395669Y519684D02*
X435903D01*
X427423Y599054D02*
X435884D01*
X395669Y472203D02*
X435875D01*
X395669Y471495D02*
X435831D01*
X432516Y523936D02*
X435829D01*
X426695Y554408D02*
X435713D01*
X427732Y608975D02*
X435575D01*
X395669Y520392D02*
X435397D01*
X432010Y523227D02*
X435356D01*
X427958Y601888D02*
X435349D01*
X404774Y553699D02*
X435236D01*
X428153Y591967D02*
X435154D01*
X395669Y521101D02*
X435130D01*
X431010Y522518D02*
X435111D01*
X403238Y552991D02*
X435051D01*
X395669Y521810D02*
X435040D01*
X423589Y505511D02*
X434931D01*
X419337Y487794D02*
X434924D01*
X424164Y482125D02*
X434432D01*
X426526Y511180D02*
X434428D01*
X428951Y598345D02*
X434356D01*
X429049Y608266D02*
X434258D01*
X429137Y602597D02*
X434170D01*
X429223Y592676D02*
X434084D01*
X423783Y506219D02*
X433815D01*
X419698Y487085D02*
X433812D01*
X405958Y548030D02*
X433705D01*
X429647Y597637D02*
X433660D01*
X429704Y607558D02*
X433603D01*
X423751Y482833D02*
X433598D01*
X426571Y510471D02*
X433596D01*
X429757Y603306D02*
X433550D01*
X395669Y552282D02*
X433536D01*
X429808Y593385D02*
X433499D01*
X423810Y506928D02*
X433274D01*
X419862Y486377D02*
X433273D01*
X430065Y596928D02*
X433242D01*
X430099Y606849D02*
X433208D01*
X430130Y604014D02*
X433177D01*
X422983Y483542D02*
X433155D01*
X426453Y509762D02*
X433154D01*
X430160Y594093D02*
X433147D01*
X430301Y596219D02*
X433006D01*
X430318Y606140D02*
X432989D01*
X424405Y507637D02*
X432985D01*
X419862Y485668D02*
X432984D01*
X430333Y604723D02*
X432974D01*
X430347Y594802D02*
X432960D01*
X419336Y484251D02*
X432930D01*
X426152Y509054D02*
X432930D01*
X430392Y595511D02*
X432915D01*
X430394Y605432D02*
X432914D01*
X425593Y508345D02*
X432876D01*
X419697Y484959D02*
X432876D01*
X405585Y548739D02*
X432787D01*
X427564Y569999D02*
X432785D01*
X395669Y551574D02*
X432726D01*
X395669Y562203D02*
X432714D01*
X395669Y573542D02*
X432603D01*
X427451Y557951D02*
X432557D01*
X404967Y549448D02*
X432405D01*
X395669Y550865D02*
X432380D01*
X403792Y550156D02*
X432284D01*
X426837Y570707D02*
X432185D01*
X395669Y572833D02*
X432104D01*
X395669Y571416D02*
X431930D01*
X395669Y572125D02*
X431906D01*
X395669Y561495D02*
X431801D01*
X426538Y558660D02*
X431744D01*
X395669Y560786D02*
X431420D01*
X405053Y559369D02*
X431396D01*
X403986Y560077D02*
X431299D01*
X395669Y421888D02*
X429121D01*
X395669Y435353D02*
X428654D01*
X395669Y522518D02*
X428439D01*
X407368Y534566D02*
X428433D01*
X395669Y470786D02*
X428433D01*
X395669Y463699D02*
X428433D01*
X395669Y465117D02*
X428275D01*
X421436Y458030D02*
X428275D01*
X405473Y528896D02*
X428275D01*
X405891Y528188D02*
X428271D01*
X395669Y422597D02*
X428067D01*
X395669Y434644D02*
X427855D01*
X395669Y426849D02*
X427795D01*
X395669Y430392D02*
X427634D01*
X395669Y431101D02*
X427588D01*
X395669Y423306D02*
X427544D01*
X395669Y426140D02*
X427463D01*
X395669Y490629D02*
X427455D01*
X403980Y523227D02*
X427438D01*
X407000Y533857D02*
X427436D01*
X395669Y470077D02*
X427436D01*
X395669Y462991D02*
X427436D01*
X395669Y433936D02*
X427428D01*
X395669Y427558D02*
X427396D01*
X404778Y529605D02*
X427366D01*
X395669Y465825D02*
X427366D01*
X420762Y458739D02*
X427366D01*
X406128Y527479D02*
X427364D01*
X395669Y429684D02*
X427310D01*
X395669Y431810D02*
X427287D01*
X395669Y424014D02*
X427266D01*
X395669Y425432D02*
X427229D01*
X395669Y433227D02*
X427214D01*
X395669Y428266D02*
X427201D01*
X395669Y428975D02*
X427174D01*
X395669Y432518D02*
X427169D01*
X395669Y424723D02*
X427166D01*
X405050Y523936D02*
X426933D01*
X406476Y533148D02*
X426931D01*
X395669Y469369D02*
X426931D01*
X395669Y462282D02*
X426931D01*
X395669Y466534D02*
X426893D01*
X418794Y459448D02*
X426893D01*
X403250Y530314D02*
X426893D01*
X406219Y526770D02*
X426892D01*
X405635Y524644D02*
X426665D01*
X405719Y532440D02*
X426665D01*
X395669Y468660D02*
X426665D01*
X395669Y461574D02*
X426665D01*
X395669Y531022D02*
X426647D01*
X395669Y467243D02*
X426647D01*
X395669Y460156D02*
X426647D01*
X406173Y526062D02*
X426646D01*
X405987Y525353D02*
X426575D01*
X404485Y531731D02*
X426575D01*
X395669Y467951D02*
X426575D01*
X395669Y460865D02*
X426575D01*
X395669Y491337D02*
X426454D01*
X425414Y495589D02*
X426380D01*
X395669Y492046D02*
X425948D01*
X410477Y494881D02*
X425907D01*
X418025Y599054D02*
X425884D01*
X395669Y492755D02*
X425681D01*
X409814Y494172D02*
X425662D01*
X402346Y493463D02*
X425591D01*
X413754Y608975D02*
X425575D01*
X418005Y601888D02*
X425349D01*
X423188Y504802D02*
X425322D01*
X413960Y591967D02*
X425154D01*
X406215Y566455D02*
X424857D01*
X405637Y558660D02*
X424643D01*
X405471Y554408D02*
X424486D01*
X417911Y598345D02*
X424356D01*
X395669Y570707D02*
X424344D01*
X414623Y608266D02*
X424258D01*
X417879Y602597D02*
X424170D01*
X395669Y582755D02*
X424121D01*
X414790Y592676D02*
X424084D01*
X422798Y504093D02*
X424053D01*
X395669Y579211D02*
X423944D01*
X406185Y567164D02*
X423797D01*
X405988Y557951D02*
X423730D01*
X405890Y555117D02*
X423673D01*
X417746Y597637D02*
X423660D01*
X404153Y569999D02*
X423617D01*
X415333Y607558D02*
X423603D01*
X417704Y603306D02*
X423550D01*
X395669Y582046D02*
X423522D01*
X415472Y593385D02*
X423499D01*
X395669Y579920D02*
X423444D01*
X406016Y567873D02*
X423378D01*
X406174Y557243D02*
X423349D01*
X406128Y555825D02*
X423326D01*
X405133Y569290D02*
X423303D01*
X395669Y581337D02*
X423268D01*
X395669Y580629D02*
X423245D01*
X417529Y596928D02*
X423242D01*
X405685Y568581D02*
X423231D01*
X406219Y556534D02*
X423229D01*
X415926Y606849D02*
X423208D01*
X417475Y604014D02*
X423177D01*
X416042Y594093D02*
X423147D01*
X417256Y596219D02*
X423006D01*
X416423Y606140D02*
X422989D01*
X417189Y604723D02*
X422974D01*
X416521Y594802D02*
X422960D01*
X416922Y595511D02*
X422915D01*
X416841Y605432D02*
X422914D01*
X419968Y513306D02*
X421764D01*
X420296Y495589D02*
X421436D01*
X420774Y512597D02*
X420958D01*
X417582Y477873D02*
X420410D01*
X418690Y483542D02*
X419537D01*
X418858Y478581D02*
X419134D01*
X406145Y545904D02*
X419030D01*
X404286Y541652D02*
X418706D01*
X395669Y459448D02*
X418607D01*
X403260Y504093D02*
X418541D01*
X403728Y504802D02*
X418151D01*
X405925Y545196D02*
X418053D01*
X402469Y503385D02*
X417964D01*
X395669Y542361D02*
X417936D01*
X404002Y505511D02*
X417750D01*
X405529Y544487D02*
X417654D01*
X395669Y502676D02*
X417652D01*
X403550Y543070D02*
X417606D01*
X395669Y501259D02*
X417562D01*
X404124Y506219D02*
X417555D01*
X404109Y506928D02*
X417528D01*
X395669Y501967D02*
X417526D01*
X404872Y543778D02*
X417521D01*
X408460Y507637D02*
X417327D01*
X395669Y453070D02*
X417286D01*
X409142Y513306D02*
X416646D01*
X395669Y458739D02*
X416640D01*
X395669Y500550D02*
X416416D01*
X410838Y495589D02*
X416318D01*
X395669Y453778D02*
X416293D01*
X409648Y508345D02*
X416139D01*
X395669Y458030D02*
X415965D01*
X395669Y477873D02*
X415882D01*
X409940Y512597D02*
X415847D01*
X395669Y454487D02*
X415770D01*
X402350Y499841D02*
X415729D01*
X411004Y496298D02*
X415677D01*
X395669Y457322D02*
X415584D01*
X410207Y509054D02*
X415580D01*
X395669Y455196D02*
X415480D01*
X410368Y511888D02*
X415420D01*
X395669Y456613D02*
X415393D01*
X395669Y455904D02*
X415360D01*
X409817Y499133D02*
X415356D01*
X411004Y497007D02*
X415329D01*
X410508Y509762D02*
X415279D01*
X410582Y511180D02*
X415206D01*
X410479Y498424D02*
X415182D01*
X410839Y497715D02*
X415173D01*
X410626Y510471D02*
X415161D01*
X403729Y488503D02*
X414789D01*
X408981Y483542D02*
X414775D01*
X395669Y478581D02*
X414607D01*
X409304Y482833D02*
X414242D01*
X408384Y484251D02*
X414129D01*
X404002Y487794D02*
X414127D01*
X408077Y479290D02*
X414029D01*
X409440Y482125D02*
X413828D01*
X407005Y484959D02*
X413768D01*
X404124Y487085D02*
X413767D01*
X408818Y479999D02*
X413716D01*
X409413Y481416D02*
X413624D01*
X403955Y485668D02*
X413603D01*
X404109Y486377D02*
X413603D01*
X409218Y480707D02*
X413589D01*
X403956Y507637D02*
X406501D01*
X395669Y589841D02*
X406199D01*
X403192Y494172D02*
X405934D01*
X403194Y499133D02*
X405931D01*
X395669Y513306D02*
X405819D01*
X403643Y484959D02*
X405594D01*
X403645Y508345D02*
X405312D01*
X403687Y494881D02*
X405271D01*
X403688Y498424D02*
X405269D01*
X400426Y397085D02*
X405258D01*
X395669Y512597D02*
X405021D01*
X403979Y495589D02*
X404910D01*
X403980Y497715D02*
X404909D01*
X403123Y509054D02*
X404753D01*
X404117Y496298D02*
X404745D01*
X404117Y497007D02*
X404744D01*
X395669Y511888D02*
X404593D01*
X395669Y479290D02*
X404521D01*
X402216Y509762D02*
X404452D01*
X395669Y511180D02*
X404379D01*
X395669Y417637D02*
X404342D01*
X395669Y510471D02*
X404335D01*
X403120Y484251D02*
X404214D01*
X399821Y610392D02*
X403872D01*
X395669Y479999D02*
X403780D01*
X402211Y483542D02*
X403618D01*
X395669Y590550D02*
X403468D01*
X395669Y480707D02*
X403380D01*
X395669Y482833D02*
X403294D01*
X395669Y481416D02*
X403185D01*
X395669Y482125D02*
X403158D01*
X399404Y397794D02*
X403102D01*
X395669Y416928D02*
X402608D01*
X398934Y609684D02*
X402314D01*
X395669Y591259D02*
X402045D01*
X398602Y398503D02*
X401788D01*
X395669Y552991D02*
X401723D01*
X395669Y530314D02*
X401711D01*
X395669Y416219D02*
X401428D01*
X395669Y543070D02*
X401411D01*
X398222Y608975D02*
X401207D01*
X395669Y550156D02*
X401169D01*
X395669Y591967D02*
X401000D01*
X395669Y523227D02*
X400981D01*
X395669Y560077D02*
X400975D01*
X395669Y569999D02*
X400807D01*
X397950Y399211D02*
X400801D01*
X395669Y541652D02*
X400674D01*
X395669Y415511D02*
X400515D01*
X395669Y531731D02*
X400476D01*
X397637Y608266D02*
X400338D01*
X395669Y563621D02*
X400291D01*
X395669Y553699D02*
X400186D01*
X395669Y529605D02*
X400183D01*
X395669Y592676D02*
X400171D01*
X395669Y543778D02*
X400088D01*
X397412Y399920D02*
X400008D01*
X395669Y549448D02*
X399994D01*
X395669Y523936D02*
X399911D01*
X395669Y559369D02*
X399908D01*
X395669Y569290D02*
X399827D01*
X395669Y414802D02*
X399774D01*
X397152Y607558D02*
X399627D01*
X395669Y564329D02*
X399550D01*
X395669Y554408D02*
X399489D01*
X395669Y593385D02*
X399489D01*
X395669Y528896D02*
X399487D01*
X395669Y544487D02*
X399432D01*
X395669Y548739D02*
X399375D01*
X396966Y400629D02*
X399353D01*
X395669Y540944D02*
X399343D01*
X395669Y524644D02*
X399326D01*
X395669Y558660D02*
X399324D01*
X395669Y568581D02*
X399275D01*
X395669Y532440D02*
X399241D01*
X395669Y414093D02*
X399158D01*
X395669Y565038D02*
X399107D01*
X395669Y555117D02*
X399070D01*
X395669Y528188D02*
X399069D01*
X395669Y545196D02*
X399036D01*
X396752Y606849D02*
X399035D01*
X395669Y548030D02*
X399003D01*
X395669Y525353D02*
X398974D01*
X395669Y557951D02*
X398973D01*
X395669Y567873D02*
X398944D01*
X395669Y594093D02*
X398919D01*
X395669Y565747D02*
X398852D01*
X395669Y555825D02*
X398833D01*
X395669Y527479D02*
X398832D01*
X395669Y545904D02*
X398816D01*
X396598Y401337D02*
X398805D01*
X395669Y547322D02*
X398800D01*
X395669Y526062D02*
X398787D01*
X395669Y557243D02*
X398787D01*
X395669Y567164D02*
X398775D01*
X395669Y566455D02*
X398745D01*
X395669Y556534D02*
X398742D01*
X395669Y526770D02*
X398742D01*
X395669Y546613D02*
X398740D01*
X395669Y413385D02*
X398641D01*
X395669Y483542D02*
X398576D01*
X395669Y509762D02*
X398572D01*
X395669Y540235D02*
X398553D01*
X396423Y606140D02*
X398538D01*
X395669Y533148D02*
X398485D01*
X395669Y493463D02*
X398441D01*
X395669Y594802D02*
X398440D01*
X395669Y499841D02*
X398437D01*
X396300Y402046D02*
X398344D01*
X395669Y503385D02*
X398318D01*
X395669Y489920D02*
X398314D01*
X395669Y412676D02*
X398207D01*
X396160Y605432D02*
X398120D01*
X395669Y595511D02*
X398038D01*
X395669Y539526D02*
X398009D01*
X395669Y533857D02*
X397961D01*
X396063Y402755D02*
X397959D01*
X395669Y411967D02*
X397844D01*
X395957Y604723D02*
X397772D01*
X395669Y596219D02*
X397704D01*
X395669Y484251D02*
X397667D01*
X395669Y509054D02*
X397665D01*
X395885Y403463D02*
X397639D01*
X395669Y538818D02*
X397626D01*
X395669Y494172D02*
X397595D01*
X395669Y499133D02*
X397593D01*
X395669Y534566D02*
X397593D01*
X395669Y411259D02*
X397544D01*
X395669Y504093D02*
X397527D01*
X395669Y489211D02*
X397525D01*
X395809Y604014D02*
X397486D01*
X395669Y596928D02*
X397431D01*
X395761Y404172D02*
X397378D01*
X395669Y538109D02*
X397368D01*
X395669Y535274D02*
X397347D01*
X395669Y410550D02*
X397303D01*
X395715Y603306D02*
X397257D01*
X395669Y537400D02*
X397218D01*
X395669Y597637D02*
X397214D01*
X395669Y535983D02*
X397208D01*
X395690Y404881D02*
X397173D01*
X395669Y536692D02*
X397165D01*
X395669Y484959D02*
X397144D01*
X395669Y508345D02*
X397143D01*
X395669Y409841D02*
X397116D01*
X395669Y494881D02*
X397100D01*
X395669Y498424D02*
X397099D01*
X395672Y602597D02*
X397081D01*
X395669Y504802D02*
X397059D01*
X395669Y488503D02*
X397058D01*
X395669Y598345D02*
X397050D01*
X395669Y405589D02*
X397020D01*
X395669Y409133D02*
X396980D01*
X395669Y601888D02*
X396956D01*
X395669Y599054D02*
X396935D01*
X395669Y406298D02*
X396916D01*
X395669Y408424D02*
X396892D01*
X395669Y601180D02*
X396879D01*
X395669Y599762D02*
X396869D01*
X395669Y407007D02*
X396861D01*
X395669Y407715D02*
X396853D01*
X395669Y600471D02*
X396851D01*
X395669Y485668D02*
X396832D01*
X395669Y507637D02*
X396832D01*
X395669Y495589D02*
X396808D01*
X395669Y497715D02*
X396807D01*
X395669Y505511D02*
X396786D01*
X395669Y487794D02*
X396785D01*
X395669Y486377D02*
X396679D01*
X395669Y506928D02*
X396679D01*
X395669Y496298D02*
X396670D01*
X395669Y497007D02*
X396670D01*
X395669Y506219D02*
X396664D01*
X395669Y487085D02*
X396664D01*
G54D20*
X398722Y540412D02*
X399836Y539298D01*
X398722Y532895D02*
X399836Y534009D01*
X406239Y532895D02*
X405125Y534009D01*
X406239Y540412D02*
X405125Y539298D01*
X540412Y406239D02*
X539298Y405125D01*
X532895Y406239D02*
X534009Y405125D01*
X532895Y398722D02*
X534009Y399836D01*
X540412Y398722D02*
X539298Y399836D01*
X612026Y461950D02*
X610912Y463064D01*
X612026Y469467D02*
X610912Y468353D01*
X604509Y469467D02*
X605623Y468353D01*
X604509Y461950D02*
X605623Y463064D01*
X570412Y609152D02*
X569298Y608038D01*
X562895Y609152D02*
X564009Y608038D01*
X562895Y601635D02*
X564009Y602749D01*
X570412Y601635D02*
X569298Y602749D01*
X748758Y609152D02*
X747645Y608038D01*
X741242Y609152D02*
X742355Y608038D01*
X741242Y601635D02*
X742355Y602749D01*
X748758Y601635D02*
X747645Y602749D01*
X738758Y609152D02*
X737645Y608038D01*
X731242Y609152D02*
X732355Y608038D01*
X731242Y601635D02*
X732355Y602749D01*
X738758Y601635D02*
X737645Y602749D01*
X708758Y609152D02*
X707645Y608038D01*
X701242Y609152D02*
X702355Y608038D01*
X701242Y601635D02*
X702355Y602749D01*
X708758Y601635D02*
X707645Y602749D01*
X550412Y599152D02*
X549298Y598038D01*
X542895Y599152D02*
X544009Y598038D01*
X542895Y591635D02*
X544009Y592749D01*
X550412Y591635D02*
X549298Y592749D01*
X490412Y609152D02*
X489298Y608038D01*
X482895Y609152D02*
X484009Y608038D01*
X482895Y601635D02*
X484009Y602749D01*
X490412Y601635D02*
X489298Y602749D01*
X470412Y599152D02*
X469298Y598038D01*
X462895Y599152D02*
X464009Y598038D01*
X462895Y591635D02*
X464009Y592749D01*
X470412Y591635D02*
X469298Y592749D01*
X450412Y609152D02*
X449298Y608038D01*
X442895Y609152D02*
X444009Y608038D01*
X442895Y601635D02*
X444009Y602749D01*
X450412Y601635D02*
X449298Y602749D01*
X718758Y406239D02*
X717645Y405125D01*
X711242Y406239D02*
X712355Y405125D01*
X711242Y398722D02*
X712355Y399836D01*
X718758Y398722D02*
X717645Y399836D01*
G54D21*
X426772Y397638D03*
X399016Y431299D03*
X410630Y430512D03*
X419882Y419291D03*
X428740Y416142D03*
X399409Y420276D03*
X418898Y397835D03*
X410039Y422244D03*
X493307Y427362D03*
X504921Y397244D03*
X461220Y397638D03*
X454331D03*
X446063D03*
X466929Y400000D03*
X473031D03*
X478543Y415945D03*
X468504D03*
X462402Y411811D03*
X500984Y422047D03*
X473622Y415945D03*
X437008Y397638D03*
X585433Y416535D03*
X581299Y397244D03*
X591339Y397047D03*
X565354Y420276D03*
X552559Y417913D03*
X579724Y432087D03*
X514173Y422835D03*
X519882Y407087D03*
X525197Y431299D03*
X553937Y426378D03*
X547244Y425787D03*
X540945Y429528D03*
X669685Y397047D03*
X629528Y420276D03*
X642520Y429331D03*
X650591Y413386D03*
X648228Y397835D03*
X601378Y397047D03*
X623031Y397835D03*
X604528Y410236D03*
X668701Y422244D03*
X595079Y427953D03*
X669685Y428740D03*
X739370Y418898D03*
X751378Y417323D03*
X751575Y406496D03*
X730118Y396654D03*
X689961Y397244D03*
X722638Y418504D03*
X712992Y410827D03*
X700197Y422047D03*
X690157Y413780D03*
X675591Y414173D03*
X683858Y427559D03*
X419094Y435827D03*
X412008Y446654D03*
X398622Y470669D03*
X412402D03*
X398819Y463780D03*
X399213Y445079D03*
X426772Y446850D03*
X417520Y491732D03*
X445669Y510630D03*
X442717Y440354D03*
X500984Y471063D03*
X456102Y442126D03*
X446654Y445866D03*
X456102Y449803D03*
Y484252D03*
Y476575D03*
X446654Y480315D03*
X456102Y512402D03*
X503150Y493504D03*
X499213Y458465D03*
X503150D03*
X504528Y504134D03*
X512008Y476969D03*
X495472Y504331D03*
X499213Y493504D03*
X585827Y470276D03*
X531496Y450000D03*
X525000Y457677D03*
X542520Y495079D03*
X521063Y447638D03*
X541535Y472047D03*
X524409Y489764D03*
X521063Y475984D03*
X579528Y439961D03*
X592913Y443504D03*
X586811Y495276D03*
X538386Y509646D03*
X565748Y461811D03*
X552165Y482677D03*
X573228Y477165D03*
X573819Y457874D03*
X559055Y477165D03*
X539764Y486220D03*
X586811Y509252D03*
X568110Y501378D03*
X557480Y445669D03*
X541535Y461614D03*
X540945Y445669D03*
X572835Y451181D03*
X566339Y471457D03*
X532480Y468504D03*
X558071Y452953D03*
X565354Y445866D03*
X559252Y464370D03*
X572244Y465354D03*
X514173Y507087D03*
X587795Y490157D03*
X666142Y477559D03*
X647638Y502165D03*
X641732Y505709D03*
X612598Y504528D03*
X601772Y488583D03*
X615157Y471063D03*
X622244Y494291D03*
X624606Y486811D03*
X649803Y437205D03*
X597638Y474213D03*
X656102Y504528D03*
X617717Y513583D03*
X638189Y479921D03*
X646063Y492126D03*
X664764Y453150D03*
X672047Y468701D03*
X652559Y449213D03*
X596654Y461614D03*
X739961Y499213D03*
X751181Y484843D03*
X751378Y452756D03*
X742323Y463583D03*
X728543Y466339D03*
X739370Y445276D03*
X716339Y441535D03*
X712992Y453937D03*
X712795Y468701D03*
X713976Y491142D03*
X693701Y486811D03*
X675591Y487205D03*
X703150Y498031D03*
X692520Y497835D03*
X686811Y510039D03*
X711220Y505315D03*
X699803Y441142D03*
X681496Y437008D03*
X687008D03*
Y445276D03*
X681496Y457480D03*
X677165Y463780D03*
X681496Y445276D03*
X430906Y543307D03*
X414567Y527756D03*
X397835Y588780D03*
X418898Y587992D03*
X413976Y545276D03*
X413583Y520866D03*
X458858Y580709D03*
X499606Y549803D03*
X479528Y580315D03*
X487992Y562205D03*
X444094Y545866D03*
X448228Y578150D03*
X475591Y555315D03*
X446654Y516142D03*
X456102Y519291D03*
X511220Y518701D03*
X433858Y568110D03*
Y553740D03*
X434252Y580315D03*
X502165Y558268D03*
X459252Y555315D03*
X494488Y575197D03*
X505512Y514764D03*
X489961Y575197D03*
X502953Y528543D03*
X513386Y542323D03*
X505315Y542520D03*
X499409Y528543D03*
X522047Y575394D03*
X592717Y559843D03*
X580709Y570472D03*
X570276Y573228D03*
X533661Y534055D03*
X546457Y549803D03*
X524409Y550000D03*
X540551Y576969D03*
X584449Y562992D03*
X580315Y534252D03*
X535236Y556496D03*
X546654Y534055D03*
X574409Y531693D03*
X578346Y528150D03*
X567323Y559449D03*
X568110Y522441D03*
X570472Y528150D03*
X591732Y539567D03*
X546063Y564764D03*
X574409Y524606D03*
X580315Y522441D03*
X525591Y516142D03*
X560236Y573819D03*
X524213Y563583D03*
X531102Y524606D03*
X547441Y514764D03*
X568110Y534252D03*
X634646Y529921D03*
X626378Y530118D03*
X605512Y569291D03*
X611220Y543898D03*
X626772Y517717D03*
X640748Y529134D03*
X660236Y575984D03*
X650591Y557677D03*
X616142Y590945D03*
X606693Y590748D03*
X609449Y536811D03*
X713189Y560630D03*
X703937Y573819D03*
X716339Y593504D03*
X739961Y558858D03*
X739370Y530512D03*
X751575Y592520D03*
Y567520D03*
X751772Y544685D03*
X751378Y514173D03*
X678937Y528740D03*
X687402Y583268D03*
X713386Y538780D03*
X701772Y556890D03*
X700787Y515551D03*
X419488Y610039D03*
X557283Y603937D03*
X576181Y595079D03*
X562402Y594882D03*
X664764Y594291D03*
X651378Y598228D03*
X597638Y604134D03*
X600591Y595276D03*
X704134Y594094D03*
X739173Y594488D03*
X687205Y595669D03*
G54D35*
X404921Y456102D03*
G54D37*
X433465Y405118D03*
G54D42*
G54D44*
X536654Y402480D03*
X715000D03*
X446654Y605394D03*
X466654Y595394D03*
X486654Y605394D03*
X546654Y595394D03*
X705000Y605394D03*
X735000D03*
X745000D03*
X402480Y536654D03*
X608268Y465709D03*
X566654Y605394D03*
G74*
X0Y0D02*
M02*
